<svg xmlns="http://www.w3.org/2000/svg" xmlns:xlink="http://www.w3.org/1999/xlink" width="15.663" height="30" viewBox="0 0 15.663 30">
  <defs>
    <clipPath id="clip-path">
      <rect id="Rectangle_5177" data-name="Rectangle 5177" width="15.663" height="30" fill="none"/>
    </clipPath>
  </defs>
  <g id="Group_18290" data-name="Group 18290" transform="translate(0 0)">
    <g id="Group_18289" data-name="Group 18289" transform="translate(0 0)" clip-path="url(#clip-path)">
      <path id="Path_7314" data-name="Path 7314" d="M12.49,5.062c.929-.031,1.858-.007,2.79-.009h.383V.219C15.166.17,14.647.1,14.127.073c-.953-.042-1.908-.09-2.862-.068a7.01,7.01,0,0,0-4.04,1.248A6.045,6.045,0,0,0,4.8,5.29,14.125,14.125,0,0,0,4.63,7.365c-.027,1.085-.006,2.169,0,3.255v.406H0v5.4H4.6V30h5.62V16.448H14.8c.236-1.8.464-3.574.706-5.426H14.477c-1.3.006-4.3,0-4.3,0s.013-2.676.045-3.838c.045-1.591.989-2.076,2.263-2.122" transform="translate(0 0)" fill="#1e4fad" fill-rule="evenodd"/>
    </g>
  </g>
</svg>
