<svg xmlns="http://www.w3.org/2000/svg" xmlns:xlink="http://www.w3.org/1999/xlink" width="314.276" height="283.958" viewBox="0 0 314.276 283.958">
  <defs>
    <clipPath id="clip-path">
      <path id="Path_7404" data-name="Path 7404" d="M141.609,16.638c-1,.1-2.143.2-3.675.377C75.323,24.368,36.137,76.546,31.484,82.933-7.762,136.8-10.26,223.75,41.1,265.433c22.6,18.344,48.91,22.02,80.074,27.23,19.316,3.23,81.793,12.678,136.448-20.1a118.859,118.859,0,0,0,21.1-15.389c48.617-45.016,48.5-127.158,10.268-180.194a137.154,137.154,0,0,0-28.735-29.288C223.678,20.157,180.912,15.92,157.6,15.921c-7.879,0-13.541.484-15.987.717" transform="translate(-2.262 -15.921)" fill="rgba(245,246,250,0.2)"/>
    </clipPath>
    <clipPath id="clip-path-2">
      <rect id="Rectangle_5249" data-name="Rectangle 5249" width="275.929" height="278.972" fill="none"/>
    </clipPath>
    <clipPath id="clip-path-3">
      <rect id="Rectangle_5247" data-name="Rectangle 5247" width="48.472" height="165.993" fill="none"/>
    </clipPath>
    <clipPath id="clip-path-4">
      <rect id="Rectangle_5248" data-name="Rectangle 5248" width="34.513" height="118.274" fill="none"/>
    </clipPath>
    <clipPath id="clip-path-5">
      <path id="Path_7409" data-name="Path 7409" d="M1307.942,5.071a36.162,36.162,0,0,0-22.975,13.258c-4.814,5.86-8.581,13.559-11.2,22.884a117.7,117.7,0,0,0-4.012,31.224.844.844,0,1,0,1.687-.052,115.856,115.856,0,0,1,3.96-30.752c5.81-20.686,16.844-32.426,32.793-34.894a24.33,24.33,0,0,1,19.983,5.3c19.251,15.863,21.18,59.96,21.2,60.4a.844.844,0,0,0,.842.811h.033a.844.844,0,0,0,.811-.876,157.359,157.359,0,0,0-3.356-24.549c-3.9-17.731-10.1-30.21-18.453-37.091A25.5,25.5,0,0,0,1312.629,4.7a30.652,30.652,0,0,0-4.687.37" transform="translate(-1269.747 -4.701)" fill="none"/>
    </clipPath>
    <linearGradient id="linear-gradient" x1="-1.543" y1="4.062" x2="-1.541" y2="4.062" gradientUnits="objectBoundingBox">
      <stop offset="0" stop-color="#2b3582"/>
      <stop offset="1" stop-color="#150e42"/>
    </linearGradient>
    <clipPath id="clip-path-6">
      <path id="Path_7410" data-name="Path 7410" d="M565.18,528.7,535.008,733.24a9.921,9.921,0,0,0,9.814,11.368h170.23L678.521,526.823Z" transform="translate(-534.9 -526.823)" fill="none"/>
    </clipPath>
    <clipPath id="clip-path-7">
      <path id="Path_7411" data-name="Path 7411" d="M2012.937,744.608h21.853a6.986,6.986,0,0,0,6.839-8.409l-43.211-207.5-22.012-1.873Z" transform="translate(-1976.405 -526.823)" fill="none"/>
    </clipPath>
    <clipPath id="clip-path-8">
      <path id="Path_7412" data-name="Path 7412" d="M1805.969,630.919a2.214,2.214,0,0,0-1.2,1.719c-.26,2.547,3.927,6.309,8.776,10.664a82.635,82.635,0,0,1,7.884,7.7.506.506,0,1,0,.779-.647,83.228,83.228,0,0,0-7.986-7.807c-4.254-3.821-8.654-7.773-8.446-9.808a1.2,1.2,0,0,1,.7-.948.506.506,0,1,0-.511-.874" transform="translate(-1804.757 -630.85)" fill="none"/>
    </clipPath>
    <linearGradient id="linear-gradient-2" x1="-6.487" y1="8.282" x2="-6.483" y2="8.282" gradientUnits="objectBoundingBox">
      <stop offset="0" stop-color="#09005d"/>
      <stop offset="1" stop-color="#1a0f91"/>
    </linearGradient>
    <clipPath id="clip-path-10">
      <path id="Path_7414" data-name="Path 7414" d="M2007.276,1117.514c-1.933-2.909-2.735-5.708-1.268-6.683,1.555-1.034,3.652.848,5.585,3.757,2.092,3.148,2.794,5.669,1.326,6.644a1.587,1.587,0,0,1-.9.266c-1.389,0-3.182-1.577-4.747-3.984m-3.063-9.512c-2.906,1.931-2.818,6.584.413,11.445,3.337,5.021,7.392,6.348,10.034,4.593s3.106-6.086-.5-11.506c-2.266-3.41-4.923-5.331-7.37-5.331a4.6,4.6,0,0,0-2.582.8m-17.237,7.49c-1.933-2.909-2.735-5.708-1.268-6.683,1.556-1.034,3.679.888,5.586,3.757,2.092,3.148,2.765,5.688,1.327,6.644a1.6,1.6,0,0,1-.906.27c-1.382,0-3.155-1.554-4.738-3.987m-3.037-9.472c-2.935,1.951-2.874,6.563.384,11.465,3.34,4.962,7.365,6.308,10.036,4.533,2.612-1.736,3.133-6.046-.5-11.506-2.26-3.4-4.893-5.3-7.326-5.3a4.63,4.63,0,0,0-2.6.806m10.978-7.3,6.731,34.133,2.054-1.365-6.73-34.134Z" transform="translate(-1981.806 -1097.36)" fill="none"/>
    </clipPath>
    <clipPath id="clip-path-11">
      <path id="Path_7415" data-name="Path 7415" d="M1821.472,631.676a.506.506,0,0,0,.149,1c3.841-.573,8.846,4.414,11.875,9.288,2.514,4.044,3.545,7.709,2.567,9.119a.506.506,0,0,0,.832.577c1.486-2.141-.337-6.689-2.538-10.231-3.114-5.01-7.972-9.811-12.125-9.811a5.125,5.125,0,0,0-.76.056" transform="translate(-1821.041 -631.62)" fill="none"/>
    </clipPath>
    <linearGradient id="linear-gradient-3" x1="-6.641" y1="8.415" x2="-6.637" y2="8.415" xlink:href="#linear-gradient-2"/>
    <clipPath id="clip-path-12">
      <path id="Path_7416" data-name="Path 7416" d="M1063.5.37a36.162,36.162,0,0,0-22.974,13.258c-4.814,5.86-8.581,13.559-11.2,22.884a117.7,117.7,0,0,0-4.012,31.224.844.844,0,0,0,.843.818h.026a.844.844,0,0,0,.817-.869,115.871,115.871,0,0,1,3.96-30.752c5.811-20.686,16.844-32.426,32.794-34.894a24.33,24.33,0,0,1,19.982,5.3c19.251,15.863,21.18,59.961,21.2,60.4a.844.844,0,0,0,.842.811h.034a.844.844,0,0,0,.81-.876,157.337,157.337,0,0,0-3.356-24.549c-3.9-17.731-10.1-30.21-18.453-37.091A25.507,25.507,0,0,0,1068.186,0a30.68,30.68,0,0,0-4.687.37" transform="translate(-1025.305 0)" fill="none"/>
    </clipPath>
    <linearGradient id="linear-gradient-4" x1="-0.953" y1="2.854" x2="-0.952" y2="2.854" xlink:href="#linear-gradient"/>
    <clipPath id="clip-path-14">
      <path id="Path_7424" data-name="Path 7424" d="M1506.571,1724.814a1.05,1.05,0,0,0-.573,1.851l46,38.308a11.054,11.054,0,0,0,14.287-.354l34.654-32.229a1.044,1.044,0,0,0-.154-1.654c-.864-.525-1.865-30.975-2.941-31.035l-90.282-5.032h0c-.336,0-.666,30.113-.989,30.145" transform="translate(-1505.62 -1694.669)" fill="none"/>
    </clipPath>
    <clipPath id="clip-path-15">
      <path id="Path_7425" data-name="Path 7425" d="M1091.914,2212.593l-5.961,5.167,35.43,2.716-.755-6.075-32.137-6.163Z" transform="translate(-1085.953 -2208.238)" fill="none"/>
    </clipPath>
    <clipPath id="clip-path-16">
      <path id="Path_7426" data-name="Path 7426" d="M1349.391,2207.655l-.552,6.1,35.319-3.9-6.13-4.964,3.276-4.468Z" transform="translate(-1348.839 -2200.42)" fill="none"/>
    </clipPath>
    <clipPath id="clip-path-17">
      <path id="Path_7427" data-name="Path 7427" d="M1109.29,2093.708l-1.85,4.448a4.331,4.331,0,0,0,2.22,5.612l25.808,11.627.966-.874-20.01-13.506a4.062,4.062,0,0,1-1.728-4.067,3.112,3.112,0,0,1,3.69-2.513l5.663,1.159a2.928,2.928,0,0,1,1.83,1.217l12.149,17.806,2.051-2-12.672-21.365a5.643,5.643,0,0,0-4.681-2.762l-5.116-.156c-.09,0-.179,0-.268,0a8.722,8.722,0,0,0-8.052,5.374" transform="translate(-1107.108 -2088.334)" fill="none"/>
    </clipPath>
    <clipPath id="clip-path-18">
      <path id="Path_7428" data-name="Path 7428" d="M1354.322,2083.208l-5.108.328a5.644,5.644,0,0,0-4.585,2.917l-11.95,21.778,2.116,1.926,11.547-18.2a2.925,2.925,0,0,1,1.788-1.278l5.622-1.347a3.111,3.111,0,0,1,3.773,2.387,4.063,4.063,0,0,1-1.591,4.123l-19.547,14.168,1,.842,25.4-12.485a4.332,4.332,0,0,0,2.031-5.683l-2-4.384a8.724,8.724,0,0,0-7.935-5.106c-.186,0-.374.006-.561.018" transform="translate(-1332.679 -2083.191)" fill="none"/>
    </clipPath>
    <clipPath id="clip-path-19">
      <path id="Path_7429" data-name="Path 7429" d="M1089.66,2304.466l4.121,63.906a3.136,3.136,0,0,0,3.021,2.937l59.28-.993a3.134,3.134,0,0,0,2.92-3.035l1.979-64.009Z" transform="translate(-1089.66 -2303.272)" fill="none"/>
    </clipPath>
    <clipPath id="clip-path-20">
      <rect id="Rectangle_5265" data-name="Rectangle 5265" width="14.227" height="68.627" transform="translate(0 0.238) rotate(-0.959)" fill="none"/>
    </clipPath>
    <clipPath id="clip-path-21">
      <path id="Path_7430" data-name="Path 7430" d="M1138.849,2254.444l-76.754,1.285a1.371,1.371,0,0,0-1.348,1.394l.115,6.882a1.372,1.372,0,0,0,1.394,1.348l76.753-1.285a1.371,1.371,0,0,0,1.348-1.395l-.115-6.881a1.371,1.371,0,0,0-1.371-1.348h-.023" transform="translate(-1060.747 -2254.444)" fill="none"/>
    </clipPath>
    <clipPath id="clip-path-22">
      <rect id="Rectangle_5268" data-name="Rectangle 5268" width="14.227" height="10.461" transform="matrix(1, -0.017, 0.017, 1, 0, 0.238)" fill="none"/>
    </clipPath>
    <clipPath id="clip-path-25">
      <path id="Path_7431" data-name="Path 7431" d="M709.46,908.836l-109.9,3.032a3.622,3.622,0,0,0-3.809,3.213l.9,55.867.142,8.757a2.087,2.087,0,0,0,2.084,2.075l112.457-.192a2.087,2.087,0,0,0,2.077-2.083l.193-8.758,1.24-56.561a5.243,5.243,0,0,0-5.247-5.353l-.14,0" transform="translate(-595.75 -908.834)" fill="none"/>
    </clipPath>
    <clipPath id="clip-path-26">
      <rect id="Rectangle_5270" data-name="Rectangle 5270" width="18.621" height="14.899" fill="none"/>
    </clipPath>
  </defs>
  <g id="Group_18907" data-name="Group 18907" transform="translate(-867.827 -167.043)">
    <g id="Group_18513" data-name="Group 18513" transform="translate(887 172.028)">
      <g id="Group_18599" data-name="Group 18599">
        <g id="Group_18430" data-name="Group 18430" transform="translate(8.953 59.961)">
          <g id="Group_18429" data-name="Group 18429" transform="translate(-28.126 -64.946)" clip-path="url(#clip-path)">
            <path id="Path_7467" data-name="Path 7467" d="M0,0,444.407,23.681l23.647,440.8L23.647,440.8Z" transform="matrix(0.729, -0.685, 0.685, 0.729, -173.3, 135.675)" fill="rgba(245,246,250,0.2)"/>
          </g>
        </g>
        <g id="Group_18438" data-name="Group 18438">
          <g id="Group_18437" data-name="Group 18437" clip-path="url(#clip-path-2)">
            <path id="Path_7405" data-name="Path 7405" d="M428.632,64.225A1.47,1.47,0,0,1,431,62.738c11.092,9.281,38.079,37.431,34.741,89.52-4.188,65.353,10.689,88.26,28.345,101.74,0,0-23.5-5.468-39.417-28.665-39.081-56.953-19.592-136.619-26.038-161.109" transform="translate(-385.88 -56.174)" fill="#bdd0fb"/>
            <g id="Group_18433" data-name="Group 18433" transform="translate(51.914 27.391)" style="mix-blend-mode: soft-light;isolation: isolate">
              <g id="Group_18432" data-name="Group 18432">
                <g id="Group_18431" data-name="Group 18431" clip-path="url(#clip-path-3)">
                  <path id="Path_7406" data-name="Path 7406" d="M521.059,275.392c1.731,7.15,3.32,14.329,4.644,21.557q2.043,10.829,3.419,21.76c.887,7.285,1.636,14.586,2.075,21.909.471,7.32.628,14.651.759,22.013.172,7.357.3,14.769,1.2,22.19a74.627,74.627,0,0,0,5.747,21.7c.77,1.713,1.575,3.419,2.472,5.061.867,1.659,1.808,3.28,2.778,4.883a77.372,77.372,0,0,0,23.15,24.2,1.422,1.422,0,0,0,1.634-2.327l0,0c-1.472-1.063-2.929-2.142-4.334-3.281-.712-.559-1.4-1.148-2.093-1.724-.674-.6-1.371-1.177-2.024-1.8a74.967,74.967,0,0,1-7.417-7.866,82.176,82.176,0,0,1-11.3-18.405,71.608,71.608,0,0,1-3.569-10.178,81.173,81.173,0,0,1-2.05-10.636c-.92-7.2-1.112-14.535-1.337-21.89s-.521-14.747-1.112-22.115q-.428-5.526-1.053-11.033c-.2-1.836-.431-3.668-.661-5.5q-.372-2.745-.778-5.484-1.656-10.953-3.984-21.78c-1.589-7.206-3.368-14.367-5.42-21.447a.381.381,0,0,0-.737.2" transform="translate(-521.049 -274.921)" fill="#fff"/>
                </g>
              </g>
            </g>
            <path id="Path_7407" data-name="Path 7407" d="M229.26,985.732a3.7,3.7,0,0,1-5.838,1.886c-11.4-8.927-41.354-37.082-42.26-87.062-.765-42.206-5.191-65.019-7.918-75.236a2.317,2.317,0,0,1,3.687-2.406c19.274,15.4,78.117,71.287,52.33,162.817" transform="translate(-155.907 -740.46)" fill="#91b3fa"/>
            <g id="Group_18436" data-name="Group 18436" transform="translate(35.694 127.492)" style="mix-blend-mode: soft-light;isolation: isolate">
              <g id="Group_18435" data-name="Group 18435">
                <g id="Group_18434" data-name="Group 18434" clip-path="url(#clip-path-4)">
                  <path id="Path_7408" data-name="Path 7408" d="M392.375,1397.681a1,1,0,0,1-.168.105,1.025,1.025,0,0,1-1.376-.455c-.288-.573-28.856-57.984-32.571-116.62a1.025,1.025,0,1,1,2.045-.129c3.688,58.209,32.07,115.259,32.356,115.828a1.025,1.025,0,0,1-.287,1.271" transform="translate(-358.259 -1279.622)" fill="#fff"/>
                </g>
              </g>
            </g>
          </g>
        </g>
        <g id="Group_18440" data-name="Group 18440" transform="translate(126.509 0.468)">
          <g id="Group_18439" data-name="Group 18439" clip-path="url(#clip-path-5)">
            <rect id="Rectangle_5250" data-name="Rectangle 5250" width="81.746" height="68.561" transform="translate(-0.408 0)" fill="url(#linear-gradient)"/>
          </g>
        </g>
        <g id="Group_18442" data-name="Group 18442" transform="translate(53.294 52.489)">
          <g id="Group_18441" data-name="Group 18441" clip-path="url(#clip-path-6)">
            <rect id="Rectangle_5251" data-name="Rectangle 5251" width="281.523" height="271.222" transform="matrix(0.553, -0.833, 0.833, 0.553, -101.162, 151.084)" fill="#59c6ce"/>
          </g>
        </g>
        <g id="Group_18444" data-name="Group 18444" transform="translate(196.915 52.489)">
          <g id="Group_18443" data-name="Group 18443" clip-path="url(#clip-path-7)">
            <rect id="Rectangle_5252" data-name="Rectangle 5252" width="146.836" height="226.186" transform="matrix(0.919, -0.395, 0.395, 0.919, -79.082, 34.035)" fill="#45aab1"/>
          </g>
        </g>
        <g id="Group_18446" data-name="Group 18446" transform="translate(179.813 62.853)">
          <g id="Group_18445" data-name="Group 18445" clip-path="url(#clip-path-8)">
            <rect id="Rectangle_5253" data-name="Rectangle 5253" width="26.98" height="26.464" transform="matrix(0.594, -0.804, 0.804, 0.594, -9.969, 13.152)" fill="url(#linear-gradient-2)"/>
          </g>
        </g>
        <g id="Group_18448" data-name="Group 18448">
          <g id="Group_18447" data-name="Group 18447" clip-path="url(#clip-path-2)">
            <path id="Path_7413" data-name="Path 7413" d="M1913.153,811.958a3,3,0,0,0-.206-2.342c-5.728-10.734-26.269-49.165-26.96-49.595-.805-.5-26.336-19.96-26.336-19.96-4.7-3.583-5.877.254-5.877.254l-6.764,38.979,27.105,49.34a3,3,0,0,0,3.926,1.257l33.564-16.162a3,3,0,0,0,1.548-1.77m-55.538-57.84a4.261,4.261,0,1,1,5.867-1.374,4.26,4.26,0,0,1-5.867,1.374" transform="translate(-1662.987 -664.949)" fill="#fff"/>
          </g>
        </g>
        <g id="Group_18450" data-name="Group 18450" transform="translate(197.453 109.333)">
          <g id="Group_18449" data-name="Group 18449" clip-path="url(#clip-path-10)">
            <rect id="Rectangle_5255" data-name="Rectangle 5255" width="44.778" height="45.611" transform="matrix(0.296, -0.955, 0.955, 0.296, -10.824, 32.399)" fill="#e69454"/>
          </g>
        </g>
        <g id="Group_18452" data-name="Group 18452" transform="translate(181.435 62.93)">
          <g id="Group_18451" data-name="Group 18451" clip-path="url(#clip-path-11)">
            <rect id="Rectangle_5256" data-name="Rectangle 5256" width="26.621" height="26.016" transform="translate(-9.72 13.102) rotate(-53.531)" fill="url(#linear-gradient-3)"/>
          </g>
        </g>
        <g id="Group_18454" data-name="Group 18454" transform="translate(102.154)">
          <g id="Group_18453" data-name="Group 18453" clip-path="url(#clip-path-12)">
            <rect id="Rectangle_5257" data-name="Rectangle 5257" width="98.173" height="103.947" transform="translate(-28.119 54.453) rotate(-63.03)" fill="url(#linear-gradient-4)"/>
          </g>
        </g>
        <g id="Group_18456" data-name="Group 18456">
          <g id="Group_18455" data-name="Group 18455" clip-path="url(#clip-path-2)">
            <path id="Path_7417" data-name="Path 7417" d="M1546.467,1650.481l47.66,39.4a6.314,6.314,0,0,1-3.08.617l-90.3-4.705a6.334,6.334,0,0,1-4.009-1.706l35.443-33.2a11.054,11.054,0,0,1,14.286-.406" transform="translate(-1347.614 -1483.859)" fill="#aec0ff"/>
            <path id="Path_7418" data-name="Path 7418" d="M1467.481,2071.262h86.928a6.354,6.354,0,0,0,6.355-6.354v-56.6a6.355,6.355,0,0,0-6-6.345l-90.282-5.032a6.355,6.355,0,0,0-6.7,6.69l3.354,61.635a6.354,6.354,0,0,0,6.345,6.009" transform="translate(-1312.53 -1797.959)" fill="#c5d8ff"/>
            <path id="Path_7419" data-name="Path 7419" d="M1541.681,2037.108l-47.517-39.573a6.316,6.316,0,0,1,3.083-.606l90.281,5.032a6.331,6.331,0,0,1,4,1.72l-35.563,33.073a11.054,11.054,0,0,1-14.287.354" transform="translate(-1345.296 -1797.96)" fill="#aec0ff"/>
          </g>
        </g>
        <g id="Group_18458" data-name="Group 18458" transform="translate(150.009 168.845)">
          <g id="Group_18457" data-name="Group 18457" clip-path="url(#clip-path-14)">
            <path id="Path_7420" data-name="Path 7420" d="M1680.449,1817.5h60.044v-68.217a4.926,4.926,0,0,0-4.643-4.918l-50.192-2.892a4.926,4.926,0,0,0-5.21,4.918Z" transform="translate(-1663.03 -1736.805)" fill="#eaf1ff"/>
            <path id="Path_7421" data-name="Path 7421" d="M1738.113,1806.468l.691,23.187.107,3.59a.855.855,0,0,0,.858.847l46.109-.285a.856.856,0,0,0,.848-.858l.03-3.591.19-22.909a1.485,1.485,0,0,0-1.572-1.3l-45.071-.888a2.15,2.15,0,0,0-2.191,2.211" transform="translate(-1714.948 -1793.338)" fill="#91b3fa"/>
            <path id="Path_7422" data-name="Path 7422" d="M1906.567,1863.821a8.348,8.348,0,0,1-.986,4.486,3.2,3.2,0,0,1-2.866,1.534,3.106,3.106,0,0,1-2.86-1.5,8.729,8.729,0,0,1-.914-4.466q0-6.021,3.775-6.021,3.851,0,3.852,5.968m-4.845.026a10.654,10.654,0,0,0,.235,2.645q.235.829.784.829t.8-.829a10.119,10.119,0,0,0,.248-2.645,9.843,9.843,0,0,0-.255-2.645q-.254-.829-.79-.829t-.784.829a10.652,10.652,0,0,0-.235,2.645m11.832-5.72-7.888,19.093h-2.7l7.862-19.093Zm4.036,13.321a8.275,8.275,0,0,1-.992,4.479,3.208,3.208,0,0,1-2.86,1.528,3.107,3.107,0,0,1-2.867-1.5,11.292,11.292,0,0,1,.026-8.932,3.094,3.094,0,0,1,2.841-1.548q3.852,0,3.853,5.968m-4.845.026a10.645,10.645,0,0,0,.235,2.645q.235.829.783.83t.8-.83a10.1,10.1,0,0,0,.249-2.645,9.774,9.774,0,0,0-.255-2.638q-.255-.823-.79-.823t-.777.823a10.263,10.263,0,0,0-.242,2.638" transform="translate(-1859.752 -1841.595)" fill="#fff"/>
            <path id="Path_7423" data-name="Path 7423" d="M1739.658,1834.921a1.206,1.206,0,0,1-.747-.26l.42-.529a.518.518,0,0,0,.325.113l2.109-.014,0,.675Zm4.8-.03,0-.675,2.689-.017,0,.675Zm5.378-.033,0-.675,2.689-.017,0,.675Zm5.377-.033,0-.675,2.689-.016,0,.675Zm5.378-.033,0-.675,2.688-.017,0,.675Zm5.378-.033,0-.675,2.689-.017,0,.675Zm5.378-.033,0-.675,2.689-.017,0,.675Zm5.378-.033,0-.675,2.688-.017,0,.675Zm5.378-.033,0-.675,2.689-.016,0,.675Zm4.395-2.041-.675-.006.022-2.656.338-.03.337,0Zm-48.088-.8-.081-2.688.675-.02.081,2.688Zm48.133-4.577-.675-.006.023-2.689.675.006Zm-48.3-.8-.081-2.688.675-.02.081,2.688Zm48.342-4.58-.676-.006.023-2.689.675.006Zm-48.5-.8-.081-2.688.675-.02.081,2.688Zm48.549-4.581-.675-.006.023-2.689.675.006Zm-48.711-.794-.081-2.687.675-.021.081,2.687Zm48.757-4.584-.675-.006.023-2.688.675.006Zm-48.919-.792-.081-2.687.337-.023.338,0,.082,2.689Zm47.354-3.646a1.168,1.168,0,0,0-.276-.011l-2.364-.044.013-.675,2.335.045c.018,0,.064,0,.109,0a1.91,1.91,0,0,1,.291.023Zm-5.329-.108-2.688-.052.013-.675,2.688.052Zm-5.377-.1-2.688-.052.013-.675,2.689.052Zm-5.377-.1-2.688-.052.013-.675,2.688.052Zm-5.376-.1-2.688-.052.013-.675,2.688.052Zm-5.376-.1-2.688-.052.013-.675,2.688.052Zm-5.377-.1-2.688-.052.013-.675,2.689.052Zm-5.377-.1-2.688-.052.013-.675,2.688.052Zm-7.943-.053-.21-.642a2.5,2.5,0,0,1,.775-.123h.048l1.966.038-.013.675-1.968-.038a1.547,1.547,0,0,0-.6.089" transform="translate(-1714.559 -1794.116)" fill="#fff"/>
          </g>
        </g>
        <g id="Group_18600" data-name="Group 18600" transform="translate(35.292 175.231)">
          <g id="Group_18460" data-name="Group 18460" transform="translate(3.693 18.33)">
            <g id="Group_18459" data-name="Group 18459" clip-path="url(#clip-path-15)">
              <rect id="Rectangle_5259" data-name="Rectangle 5259" width="18.949" height="37.142" transform="translate(-2.354 11.768) rotate(-78.69)" fill="#3e3f97"/>
            </g>
          </g>
          <g id="Group_18462" data-name="Group 18462" transform="translate(42.227 17.184)">
            <g id="Group_18461" data-name="Group 18461" clip-path="url(#clip-path-16)">
              <rect id="Rectangle_5260" data-name="Rectangle 5260" width="37.752" height="24.848" transform="translate(-4.37 1.632) rotate(-20.48)" fill="#3e3f97"/>
            </g>
          </g>
          <g id="Group_18464" data-name="Group 18464" transform="translate(6.795 0.754)">
            <g id="Group_18463" data-name="Group 18463" clip-path="url(#clip-path-17)">
              <rect id="Rectangle_5261" data-name="Rectangle 5261" width="42.326" height="39.657" transform="translate(-11.8 5.987) rotate(-28.059)" fill="#3e3f97"/>
            </g>
          </g>
          <g id="Group_18466" data-name="Group 18466" transform="translate(39.858)">
            <g id="Group_18465" data-name="Group 18465" clip-path="url(#clip-path-18)">
              <rect id="Rectangle_5262" data-name="Rectangle 5262" width="42.223" height="43.124" transform="matrix(0.62, -0.785, 0.785, 0.62, -13.451, 17.038)" fill="#3e3f97"/>
            </g>
          </g>
          <g id="Group_18468" data-name="Group 18468" transform="translate(4.237 32.26)">
            <g id="Group_18467" data-name="Group 18467" clip-path="url(#clip-path-19)">
              <path id="Path_7468" data-name="Path 7468" d="M0,0H71.321V68.063H0Z" transform="translate(0)" fill="#7d97f4"/>
            </g>
          </g>
          <g id="Group_18470" data-name="Group 18470" transform="translate(32.7 31.065)">
            <g id="Mask_Group_18469" data-name="Mask Group 18469" transform="translate(0 0)" clip-path="url(#clip-path-20)">
              <path id="Path_7469" data-name="Path 7469" d="M0,0H69.19V16.954H0Z" transform="translate(-1.584 68.819) rotate(-88.682)" fill="#3e3f97"/>
            </g>
          </g>
          <g id="Group_18472" data-name="Group 18472" transform="translate(0 25.103)">
            <g id="Group_18471" data-name="Group 18471" clip-path="url(#clip-path-21)">
              <rect id="Rectangle_5266" data-name="Rectangle 5266" width="48.743" height="74.678" transform="translate(-4.695 8.269) rotate(-60.479)" fill="#7d97f4"/>
            </g>
          </g>
          <g id="Group_18474" data-name="Group 18474" transform="translate(32.595 24.79)">
            <g id="Group_18473" data-name="Group 18473" transform="translate(0 0)" clip-path="url(#clip-path-22)">
              <rect id="Rectangle_5267" data-name="Rectangle 5267" width="16.478" height="17.824" transform="translate(-4.642 8.007) rotate(-59.899)" fill="#3e3f97"/>
            </g>
          </g>
        </g>
        <g id="Group_18493" data-name="Group 18493">
          <g id="Group_18492" data-name="Group 18492" clip-path="url(#clip-path-2)">
            <path id="Path_7457" data-name="Path 7457" d="M76.881,2073.116a.567.567,0,0,1-.528-.363l-2.284-5.935-3.623-1.786a.566.566,0,1,1,.5-1.016l3.821,1.884a.567.567,0,0,1,.278.3l2.363,6.142a.566.566,0,0,1-.528.77" transform="translate(-63.143 -1858.319)" fill="#666694"/>
          </g>
        </g>
      </g>
    </g>
    <g id="Group_18602" data-name="Group 18602" transform="translate(0 -19.972)">
      <g id="Group_18476" data-name="Group 18476" transform="translate(924.502 269.193)">
        <g id="Group_18475" data-name="Group 18475" transform="translate(0.001)" clip-path="url(#clip-path-25)">
          <rect id="Rectangle_5269" data-name="Rectangle 5269" width="138.62" height="131.313" transform="translate(-35.563 28.364) rotate(-38.577)" fill="#3e3f97"/>
        </g>
      </g>
      <path id="Path_7432" data-name="Path 7432" d="M1553.425,1239.036l-12.038.021a.17.17,0,0,1,0-.341l12.038-.021a2.821,2.821,0,0,0,2.781-2.854l-.063-36.851a.17.17,0,0,1,.341,0l.063,36.851a3.162,3.162,0,0,1-3.121,3.2" transform="translate(-516.053 -898.752)" fill="#fff"/>
      <path id="Path_7433" data-name="Path 7433" d="M621.813,984.506a.17.17,0,0,1-.171-.17l-.037-21.474a4.017,4.017,0,0,1,3.929-4.092l9.524-.016a.17.17,0,0,1,0,.341l-9.524.016a3.676,3.676,0,0,0-3.589,3.75l.037,21.474a.17.17,0,0,1-.17.171" transform="translate(305.648 -684.247)" fill="#fff"/>
      <g id="Group_18601" data-name="Group 18601">
        <path id="Path_7434" data-name="Path 7434" d="M787.575,1090.088l-.116-14.705,2.736-.022.1,12.312,3.792-.03.019,2.394Z" transform="translate(157.453 -788.438)" fill="#fff"/>
        <path id="Path_7435" data-name="Path 7435" d="M872.07,1079.939a9.745,9.745,0,0,1-1.324,5.623,4.9,4.9,0,0,1-7.835.067A9.782,9.782,0,0,1,861.5,1080a9.669,9.669,0,0,1,1.324-5.608,4.523,4.523,0,0,1,3.927-1.977,4.462,4.462,0,0,1,3.918,1.926,9.777,9.777,0,0,1,1.4,5.6M864.3,1080a9.121,9.121,0,0,0,.664,3.827,2,2,0,0,0,1.871,1.3q2.474-.019,2.434-5.17t-2.495-5.131a2.017,2.017,0,0,0-1.87,1.328,9.119,9.119,0,0,0-.6,3.842" transform="translate(91.297 -785.807)" fill="#fff"/>
        <path id="Path_7436" data-name="Path 7436" d="M973.074,1079.263l1.916-5.819,2.867-.023-3.421,8.839.046,5.894-2.7.021-.046-5.783-3.551-8.894,2.887-.023Z" transform="translate(-4.035 -786.705)" fill="#fff"/>
        <path id="Path_7437" data-name="Path 7437" d="M1068.33,1087.069l-.874-3.7-3.832.03-.816,3.718-2.736.022,3.525-14.795,3.711-.029,3.768,14.737Zm-1.406-6.125-.812-3.414q-.073-.311-.329-1.562t-.31-1.672q-.124.866-.317,1.909t-1.009,4.761Z" transform="translate(-86.135 -785.712)" fill="#fff"/>
        <path id="Path_7438" data-name="Path 7438" d="M1174.641,1087.034l-.116-14.705,2.736-.022.1,12.312,3.792-.03.019,2.394Z" transform="translate(-188.402 -785.71)" fill="#fff"/>
        <path id="Path_7439" data-name="Path 7439" d="M1248.3,1086.081l-2.726.022-.1-12.3-2.817.022-.019-2.4,8.359-.066.019,2.4-2.817.022Z" transform="translate(-249.268 -784.857)" fill="#fff"/>
        <path id="Path_7440" data-name="Path 7440" d="M1328.586,1076.458l1.916-5.819,2.866-.023-3.421,8.839.046,5.894-2.7.021-.045-5.784-3.551-8.894,2.887-.023Z" transform="translate(-321.697 -784.199)" fill="#fff"/>
        <path id="Path_7441" data-name="Path 7441" d="M749.539,1312.338a5.042,5.042,0,0,1-1.153,3.605,4.471,4.471,0,0,1-3.405,1.279l-.684.006.042,5.331-2.736.021-.116-14.705,3.732-.029q4.285-.034,4.321,4.492m-5.261,2.516.523,0a1.905,1.905,0,0,0,1.494-.565,3.524,3.524,0,0,0,.012-3.526,1.694,1.694,0,0,0-1.4-.547l-.664.005Z" transform="translate(198.531 -996.171)" fill="#fff"/>
        <path id="Path_7442" data-name="Path 7442" d="M836.973,1316.115l.045,5.723-2.736.022-.116-14.705,3.581-.028a4.587,4.587,0,0,1,3.363,1.05,4.464,4.464,0,0,1,1.107,3.281,4.137,4.137,0,0,1-1.85,3.908l2.877,6.425-2.927.023-2.369-5.7Zm-.019-2.354.7-.006a1.645,1.645,0,0,0,1.384-.559,2.654,2.654,0,0,0,.409-1.638,2.319,2.319,0,0,0-.46-1.6,1.813,1.813,0,0,0-1.387-.467l-.684.005Z" transform="translate(115.719 -995.527)" fill="#fff"/>
        <path id="Path_7443" data-name="Path 7443" d="M937.767,1311.618a9.745,9.745,0,0,1-1.324,5.623,4.9,4.9,0,0,1-7.835.067,9.784,9.784,0,0,1-1.412-5.627,9.67,9.67,0,0,1,1.324-5.609,4.523,4.523,0,0,1,3.927-1.977,4.461,4.461,0,0,1,3.918,1.926,9.778,9.778,0,0,1,1.4,5.6m-7.775.061a9.125,9.125,0,0,0,.664,3.827,2,2,0,0,0,1.871,1.3q2.474-.019,2.434-5.169t-2.495-5.131a2.016,2.016,0,0,0-1.87,1.328,9.117,9.117,0,0,0-.6,3.842" transform="translate(32.594 -992.82)" fill="#fff"/>
        <path id="Path_7444" data-name="Path 7444" d="M1047.256,1310.091l4.5-.036.06,7.544a10.257,10.257,0,0,1-4.057.847,4.548,4.548,0,0,1-3.963-1.92,9.653,9.653,0,0,1-1.427-5.612,8.715,8.715,0,0,1,1.54-5.555,5.331,5.331,0,0,1,4.415-2.036,6.724,6.724,0,0,1,3.367.879l-.847,2.24a4.693,4.693,0,0,0-2.339-.706,2.814,2.814,0,0,0-2.458,1.413,6.878,6.878,0,0,0-.88,3.8,8.7,8.7,0,0,0,.689,3.787,2.071,2.071,0,0,0,1.927,1.3,5.53,5.53,0,0,0,1.346-.182l-.026-3.37-1.821.014Z" transform="translate(-70.313 -992.13)" fill="#fff"/>
        <path id="Path_7445" data-name="Path 7445" d="M1153.939,1313.613l.045,5.723-2.736.022-.116-14.706,3.581-.028a4.588,4.588,0,0,1,3.363,1.05,4.463,4.463,0,0,1,1.107,3.28,4.137,4.137,0,0,1-1.85,3.908l2.877,6.425-2.927.023-2.369-5.7Zm-.019-2.354.7-.006a1.644,1.644,0,0,0,1.384-.559,2.652,2.652,0,0,0,.409-1.638,2.319,2.319,0,0,0-.46-1.6,1.811,1.811,0,0,0-1.387-.467l-.684.005Z" transform="translate(-167.5 -993.293)" fill="#fff"/>
        <path id="Path_7446" data-name="Path 7446" d="M1245.035,1317.872l-.874-3.7-3.833.03-.815,3.718-2.736.022,3.525-14.795,3.712-.029,3.768,14.737Zm-1.406-6.125-.812-3.414q-.073-.311-.329-1.562t-.31-1.672q-.124.866-.317,1.909t-1.009,4.761Z" transform="translate(-244.027 -991.942)" fill="#fff"/>
        <path id="Path_7447" data-name="Path 7447" d="M1356.6,1317.079l-2.9-12.5h-.111a20.449,20.449,0,0,1,.212,2.654l.078,9.867-2.535.02-.116-14.706,4.2-.033,2.606,11.537h.081l2.4-11.577,4.265-.034.116,14.705-2.595.021-.079-9.968a23.469,23.469,0,0,1,.121-2.536h-.08l-2.687,12.525Z" transform="translate(-346.295 -991.223)" fill="#fff"/>
      </g>
      <path id="Path_7448" data-name="Path 7448" d="M1502.326,1135.729a2.918,2.918,0,0,1-2.895,2.941l-9.706.077a2.918,2.918,0,0,1-2.941-2.895v-.035a2.918,2.918,0,0,1,2.895-2.941l9.706-.077a2.918,2.918,0,0,1,2.941,2.9Z" transform="translate(-467.416 -839.76)" fill="#7d97f4"/>
      <g id="Group_18479" data-name="Group 18479" transform="translate(1016.313 275.309)" opacity="0.85">
        <g id="Group_18478" data-name="Group 18478">
          <g id="Group_18477" data-name="Group 18477" clip-path="url(#clip-path-26)">
            <path id="Path_7449" data-name="Path 7449" d="M1476.591,967.461a.506.506,0,0,0-.417-.164l-14.887.43-.385-1.192a.388.388,0,0,0-.388-.265l-2.044.07a.384.384,0,0,0-.394.38.362.362,0,0,0,.4.354l1.747-.055,3.241,10.076a.418.418,0,0,0,.4.286l10.452.058a.4.4,0,0,0,.441-.386.413.413,0,0,0-.447-.39l-10.147-.029-.835-2.616,11.149-.071a.517.517,0,0,0,.491-.36l1.715-5.7a.448.448,0,0,0-.087-.421" transform="translate(-1458.077 -966.269)" fill="#fff"/>
            <path id="Path_7450" data-name="Path 7450" d="M1513.842,1076.374a1.508,1.508,0,0,0-1.544,1.5,1.586,1.586,0,0,0,1.568,1.544,1.508,1.508,0,0,0,1.561-1.5,1.586,1.586,0,0,0-1.585-1.545m.018,2.236a.74.74,0,0,1-.734-.721.7.7,0,0,1,.723-.7.74.74,0,0,1,.737.721.7.7,0,0,1-.726.7" transform="translate(-1506.526 -1064.651)" fill="#fff"/>
            <path id="Path_7451" data-name="Path 7451" d="M1578.641,1076.875a1.565,1.565,0,0,0-1.62,1.54,1.646,1.646,0,0,0,1.645,1.583,1.566,1.566,0,0,0,1.639-1.54,1.647,1.647,0,0,0-1.664-1.583m.018,2.29a.768.768,0,0,1-.77-.739.73.73,0,0,1,.758-.719.768.768,0,0,1,.774.739.73.73,0,0,1-.762.719" transform="translate(-1564.357 -1065.099)" fill="#fff"/>
          </g>
        </g>
      </g>
    </g>
  </g>
</svg>
