<svg xmlns="http://www.w3.org/2000/svg" xmlns:xlink="http://www.w3.org/1999/xlink" width="151" height="34" viewBox="0 0 151 34">
  <defs>
    <clipPath id="clip-path">
      <rect id="Rectangle_5429" data-name="Rectangle 5429" width="151" height="34" transform="translate(0 0.205)" fill="none"/>
    </clipPath>
  </defs>
  <g id="Group_18909" data-name="Group 18909" transform="translate(0.066 -0.183)">
    <g id="Group_18908" data-name="Group 18908" transform="translate(-0.066 -0.022)" clip-path="url(#clip-path)">
      <path id="Path_7641" data-name="Path 7641" d="M43.655,2H37.77a12.785,12.785,0,0,0-12.42,9.777A13.108,13.108,0,0,0,25,14.77v8.106c0,1.048.125.8.349,1.771a7.445,7.445,0,0,0,6.958,4.789h5.238A7.419,7.419,0,0,1,30.113,22V14.4a7.419,7.419,0,0,1,7.432-7.432H43.88a7.47,7.47,0,0,1,6.958,4.789,7.652,7.652,0,0,1,.474,2.644v8.879a7.759,7.759,0,0,1-.474,2.644c-.648,5.262-6.41,9.752-12.42,9.752h5.238A12.762,12.762,0,0,0,56.425,22.9V14.77A12.762,12.762,0,0,0,43.655,2" transform="translate(-18.71 -1.483)" fill="#3e3f97"/>
      <path id="Path_7642" data-name="Path 7642" d="M31.425,13.767v7.108a13.326,13.326,0,0,1-.349,3.018,12.785,12.785,0,0,1-12.42,9.777H12.77A12.762,12.762,0,0,1,0,20.9V12.77A12.762,12.762,0,0,1,12.77,0l4.439.249a11.77,11.77,0,0,0-2.12.175c-4.888.8-8.305,4.414-9.5,9.353a7.652,7.652,0,0,0-.474,2.644V21.3a7.76,7.76,0,0,0,.474,2.644,7.445,7.445,0,0,0,6.958,4.789H18.88A7.419,7.419,0,0,0,26.312,21.3V13.393A7.419,7.419,0,0,0,18.88,5.961h5.238a7.47,7.47,0,0,1,6.958,4.789,13.493,13.493,0,0,1,.349,3.018" transform="translate(0.055 0.018)" fill="#59c6ce"/>
      <path id="Path_7643" data-name="Path 7643" d="M183.765,19.984a6.342,6.342,0,0,1-2.245,5.238,9.835,9.835,0,0,1-6.385,1.821h-2.27v8.205H169.3V13.4h6.285c2.719,0,4.764.549,6.135,1.671a5.918,5.918,0,0,1,2.045,4.913M172.891,24.05h1.9a6.994,6.994,0,0,0,4.04-.948,3.528,3.528,0,0,0,1.272-2.993,3.409,3.409,0,0,0-1.147-2.818,5.68,5.68,0,0,0-3.591-.923h-2.469Z" transform="translate(-127.021 -10.04)" fill="#3e3f97"/>
      <path id="Path_7644" data-name="Path 7644" d="M258.358,14.943A9.619,9.619,0,0,0,251.025,12v3.068a5.6,5.6,0,0,1,4.614,2.07,9.836,9.836,0,0,1,1.6,6.085c0,2.719-.549,4.764-1.621,6.135a6.575,6.575,0,0,1-9.6-.025,9.569,9.569,0,0,1-1.621-5.736H240.6c.05,3.417.948,6.061,2.644,7.931,1.771,1.945,4.29,2.943,7.582,2.943a9.623,9.623,0,0,0,7.532-2.968c1.771-1.97,2.669-4.739,2.669-8.305,0-3.542-.9-6.285-2.669-8.255" transform="translate(-180.538 -8.989)" fill="#3e3f97"/>
      <path id="Path_7645" data-name="Path 7645" d="M341.2,16.019h3.566V13.4H341.2Zm0,19.229h3.566V19.037H341.2Z" transform="translate(-256.048 -10.04)" fill="#3e3f97"/>
      <path id="Path_7646" data-name="Path 7646" d="M393.514,13.4V24.848c0,.8.025,1.92.1,3.367.05,1.447.1,2.27.125,2.494h-.1L382.94,13.4h-3.916l5.911,9.527-.075.05,7.557,12.271h4.365V13.4ZM378.6,35.248h3.242V23.626L378.6,18.388Z" transform="translate(-284.12 -10.04)" fill="#3e3f97"/>
      <path id="Path_7647" data-name="Path 7647" d="M464.8,13.4v3.068h6.41v.05h3.567v-.05h6.41V13.4Zm6.41,21.848h3.567V19.037H471.21Z" transform="translate(-348.822 -10.04)" fill="#3e3f97"/>
      <path id="Path_7648" data-name="Path 7648" d="M546.616,13.4l-3.492,6.759,1.8,3.492L550.507,13.4Zm-7.532,5.387L536.291,13.4H532.4l7.233,13.493v8.355h3.591v-8.4Z" transform="translate(-399.562 -10.04)" fill="#3e3f97"/>
      <path id="Path_7649" data-name="Path 7649" d="M173.419,115.723a1.447,1.447,0,0,0-1.172.524,2.2,2.2,0,0,0-.424,1.471,2.376,2.376,0,0,0,.4,1.5,1.4,1.4,0,0,0,1.172.5,2.719,2.719,0,0,0,.648-.075c.2-.05.424-.1.648-.175v.748a4.1,4.1,0,0,1-1.4.249,2.189,2.189,0,0,1-1.771-.7,3.081,3.081,0,0,1-.624-2.045,3.256,3.256,0,0,1,.3-1.447,2.29,2.29,0,0,1,.873-.948,2.567,2.567,0,0,1,1.347-.324,3.306,3.306,0,0,1,1.5.349l-.3.723c-.175-.075-.374-.15-.574-.224a1.736,1.736,0,0,0-.624-.125" transform="translate(-128.222 -86.3)" fill="#59c6ce"/>
      <path id="Path_7650" data-name="Path 7650" d="M205.965,120.537h-.873v-2.419h-2.419v2.419H201.8V115.2h.873v2.195h2.419V115.2h.873Z" transform="translate(-151.415 -86.451)" fill="#59c6ce"/>
      <path id="Path_7651" data-name="Path 7651" d="M236.366,120.462l-.524-1.471h-2.02l-.524,1.471h-.9l1.97-5.362h.948l1.97,5.362Zm-.748-2.245-.5-1.447a4.593,4.593,0,0,0-.15-.449c-.075-.2-.1-.374-.125-.449a9.859,9.859,0,0,1-.274.973l-.474,1.4h1.521Z" transform="translate(-174.383 -86.376)" fill="#59c6ce"/>
      <rect id="Rectangle_5428" data-name="Rectangle 5428" width="0.873" height="5.337" transform="translate(66.372 28.749)" fill="#59c6ce"/>
      <path id="Path_7652" data-name="Path 7652" d="M290.39,120.537h-1.048l-2.594-4.265h-.025l.025.249c.025.449.05.873.05,1.247v2.768H286V115.2h1.047l2.594,4.24h.025c0-.05-.025-.249-.025-.624s-.025-.624-.025-.823V115.2h.8v5.337Z" transform="translate(-214.615 -86.451)" fill="#59c6ce"/>
      <path id="Path_7653" data-name="Path 7653" d="M342.938,117.543a2.932,2.932,0,0,1-.648,2.02,2.347,2.347,0,0,1-1.821.723,2.311,2.311,0,0,1-1.821-.723,2.957,2.957,0,0,1-.648-2.045,2.889,2.889,0,0,1,.648-2.02,2.719,2.719,0,0,1,3.666.025,2.969,2.969,0,0,1,.624,2.02m-4.015,0a2.376,2.376,0,0,0,.4,1.5,1.6,1.6,0,0,0,2.319,0,2.491,2.491,0,0,0,.4-1.5,2.376,2.376,0,0,0-.4-1.5,1.319,1.319,0,0,0-1.147-.5,1.436,1.436,0,0,0-1.172.5,2.376,2.376,0,0,0-.4,1.5" transform="translate(-253.646 -86.15)" fill="#59c6ce"/>
      <path id="Path_7654" data-name="Path 7654" d="M374.348,120.537H373.5V115.2h2.968v.748h-2.12v1.671h2v.748h-2Z" transform="translate(-280.292 -86.451)" fill="#59c6ce"/>
      <path id="Path_7655" data-name="Path 7655" d="M419.1,120.537V115.2h.873v4.589h2.22v.748Z" transform="translate(-314.519 -86.451)" fill="#59c6ce"/>
      <path id="Path_7656" data-name="Path 7656" d="M449.538,117.543a2.932,2.932,0,0,1-.648,2.02,2.347,2.347,0,0,1-1.821.723,2.311,2.311,0,0,1-1.821-.723,2.957,2.957,0,0,1-.648-2.045,2.889,2.889,0,0,1,.648-2.02,2.719,2.719,0,0,1,3.666.025,2.969,2.969,0,0,1,.624,2.02m-4.015,0a2.376,2.376,0,0,0,.4,1.5,1.366,1.366,0,0,0,1.172.5,1.353,1.353,0,0,0,1.147-.5,2.49,2.49,0,0,0,.4-1.5,2.376,2.376,0,0,0-.4-1.5,1.319,1.319,0,0,0-1.147-.5,1.436,1.436,0,0,0-1.172.5,2.376,2.376,0,0,0-.4,1.5" transform="translate(-333.659 -86.15)" fill="#59c6ce"/>
      <path id="Path_7657" data-name="Path 7657" d="M479.195,117.544l1.247-2.444h.948l-1.746,3.267v2.07h-.9v-2.045L477,115.1h.948Z" transform="translate(-357.979 -86.376)" fill="#59c6ce"/>
      <path id="Path_7658" data-name="Path 7658" d="M507.766,120.462l-.524-1.471h-2.02l-.524,1.471h-.9l1.97-5.362h.948l1.97,5.362Zm-.748-2.245-.5-1.447a4.6,4.6,0,0,0-.15-.449c-.075-.2-.1-.374-.125-.449a9.868,9.868,0,0,1-.274.973l-.474,1.4h1.521Z" transform="translate(-378.095 -86.376)" fill="#59c6ce"/>
      <path id="Path_7659" data-name="Path 7659" d="M537.3,120.537V115.2h.873v4.589h2.22v.748Z" transform="translate(-403.24 -86.451)" fill="#59c6ce"/>
      <path id="Path_7660" data-name="Path 7660" d="M566.467,118.941a1.4,1.4,0,0,1-.5,1.122,2.165,2.165,0,0,1-1.4.4,3.6,3.6,0,0,1-1.471-.274v-.823a4.063,4.063,0,0,0,.773.274,2.814,2.814,0,0,0,.748.1,1.168,1.168,0,0,0,.748-.2.663.663,0,0,0,.249-.524.628.628,0,0,0-.224-.5,3.953,3.953,0,0,0-.923-.5,2.593,2.593,0,0,1-1.023-.673,1.415,1.415,0,0,1-.3-.923,1.237,1.237,0,0,1,.474-1.048,1.954,1.954,0,0,1,1.247-.374,3.6,3.6,0,0,1,1.5.324l-.274.723a3.324,3.324,0,0,0-1.247-.3.888.888,0,0,0-.624.175.672.672,0,0,0-.224.5.658.658,0,0,0,.349.624,3.918,3.918,0,0,0,.723.349,4.9,4.9,0,0,1,.848.449,1.2,1.2,0,0,1,.4.474,1.012,1.012,0,0,1,.15.624" transform="translate(-422.605 -86.3)" fill="#59c6ce"/>
    </g>
  </g>
</svg>
