<svg xmlns="http://www.w3.org/2000/svg" xmlns:xlink="http://www.w3.org/1999/xlink" width="33.891" height="30.749" viewBox="0 0 33.891 30.749">
  <defs>
    <linearGradient id="linear-gradient" x1="0.988" y1="0.557" x2="0" y2="0.551" gradientUnits="objectBoundingBox">
      <stop offset="0" stop-color="#b2d4ff"/>
      <stop offset="1" stop-color="#59c6ce"/>
    </linearGradient>
  </defs>
  <g id="Group_20711" data-name="Group 20711" transform="translate(-17.054 -25.608)">
    <path id="Path_8019" data-name="Path 8019" d="M41.782,2H36.5A11.486,11.486,0,0,0,25,13.5v7.3a11.58,11.58,0,0,0,.321,2.709,6.688,6.688,0,0,0,6.255,4.318H36.29A6.688,6.688,0,0,1,29.6,21.141V13.159A6.688,6.688,0,0,1,36.29,6.471h5.7a6.686,6.686,0,0,1,6.688,6.688v7.981a6.641,6.641,0,0,1-.433,2.37C47.669,28.26,42.484,32.3,37.068,32.3h4.713a11.5,11.5,0,0,0,11.5-11.5V13.5A11.5,11.5,0,0,0,41.782,2" transform="translate(-2.335 24.057)" fill="url(#linear-gradient)"/>
    <path id="Path_8020" data-name="Path 8020" d="M28.28,12.4V18.8a11.486,11.486,0,0,1-11.5,11.5H11.5A11.5,11.5,0,0,1,0,18.8V11.5A11.5,11.5,0,0,1,11.5,0l3.988.224a11.678,11.678,0,0,0-1.909.154c-4.4.728-7.473,3.983-8.543,8.411a6.641,6.641,0,0,0-.433,2.37v7.981a6.686,6.686,0,0,0,6.688,6.688h5.7a6.688,6.688,0,0,0,6.688-6.688V12.057a6.688,6.688,0,0,0-6.688-6.688H21.7a6.688,6.688,0,0,1,6.255,4.318A11.58,11.58,0,0,1,28.28,12.4" transform="translate(17.054 25.608)" fill="url(#linear-gradient)"/>
  </g>
</svg>
