<svg xmlns="http://www.w3.org/2000/svg" width="15" height="16.835" viewBox="0 0 15 16.835">
  <path id="manager-avatar-svgrepo-com" d="M23.378,4.971a1.014,1.014,0,0,0-.312-.308,5.187,5.187,0,0,0-.055-.723c.029-.348.129-2.262-1.042-3.126A3.931,3.931,0,0,0,19.642,0,3.034,3.034,0,0,0,17.9.52a2.548,2.548,0,0,0-.787.862,1.56,1.56,0,0,0-1.468,1.136,1.842,1.842,0,0,0,.128,1.752c-.012.152-.017.286-.017.393a1.014,1.014,0,0,0-.312.308,1.594,1.594,0,0,0-.107,1.3c.262,1,.874,1.223,1.2,1.267a6.606,6.606,0,0,0,1.085,1.636,2.161,2.161,0,0,0,.682.414,3.009,3.009,0,0,0,2.213,0,2.161,2.161,0,0,0,.682-.414,6.606,6.606,0,0,0,1.085-1.636c.326-.044.938-.265,1.2-1.267A1.594,1.594,0,0,0,23.378,4.971Zm-.638,1.1c-.16.611-.445.7-.6.7h-.024a.362.362,0,0,0-.421.216,6.771,6.771,0,0,1-1.019,1.617,1.4,1.4,0,0,1-.441.261,2.248,2.248,0,0,1-1.645,0,1.4,1.4,0,0,1-.441-.261,6.771,6.771,0,0,1-1.019-1.617.369.369,0,0,0-.332-.227.361.361,0,0,0-.089.011h-.024c-.156,0-.441-.091-.6-.7a.955.955,0,0,1,0-.675.247.247,0,0,1,.134-.111.362.362,0,0,0,.314-.412,3.6,3.6,0,0,1,0-.456A3.129,3.129,0,0,0,17.581,3.7a2.32,2.32,0,0,0,.409-.658,4.855,4.855,0,0,0,1.107.672,12.616,12.616,0,0,0,3.181.6,3.814,3.814,0,0,1,.012.565.361.361,0,0,0,.314.413.248.248,0,0,1,.134.111A.954.954,0,0,1,22.74,6.074Zm2.47,5.143L21.842,9.871a.385.385,0,0,0-.505.227l-.846,2.34-.168-.482.267-.652a.385.385,0,0,0-.356-.531H18.589a.385.385,0,0,0-.356.531l.267.652-.168.482-.846-2.34a.385.385,0,0,0-.505-.227l-3.367,1.347a2.7,2.7,0,0,0-1.7,2.514V16.45a.385.385,0,0,0,.385.385h14.23a.385.385,0,0,0,.385-.385V13.732A2.7,2.7,0,0,0,25.209,11.218Zm-.117,3.625a.385.385,0,0,1-.385.385H22.121a.385.385,0,0,1-.385-.385v-1.2a.385.385,0,0,1,.385-.385h2.585a.385.385,0,0,1,.385.385Z" transform="translate(-11.911 0)" fill="#616164"/>
</svg>
