<svg xmlns="http://www.w3.org/2000/svg" width="67.351" height="93.242" viewBox="0 0 67.351 93.242">
  <g id="PADLE-ME" transform="translate(-157.1 -109.245)">
    <path id="Path_7288" data-name="Path 7288" d="M203.811,245.3a28.511,28.511,0,1,0,28.511,28.511A28.511,28.511,0,0,0,203.811,245.3Zm0,54.333a25.822,25.822,0,1,1,25.822-25.822A25.813,25.813,0,0,1,203.811,299.633Z" transform="translate(-13.355 -99.836)" fill="#fff"/>
    <path id="Path_7289" data-name="Path 7289" d="M216.559,310.759a9.48,9.48,0,0,1,.692-6.389c1.358-2.689,4.02-4.605,6.5-6.176,2.9-1.837,5.936-3.434,8.705-5.484.852-.639,1.677-1.3,2.476-2.023,5.511-5.111,6.682-9.477,2.822-15.733-6.043-9.77-22.867-17.277-30.108-4.632a21.07,21.07,0,0,0-2.316,6.5c-.426,2.076-.639,4.179-.985,6.283a15.009,15.009,0,0,1-1.784,5.431c-1.7,2.742-4.579,3.887-7.614,4.392a23.631,23.631,0,0,0,2.822,6.708,23.279,23.279,0,0,0,18.794,11.128ZM194.3,289.116c2.13.346,4.286-1.3,5.244-3.115a17.978,17.978,0,0,0,1.571-5.138c.426-2.1.719-4.233,1.2-6.336a22.187,22.187,0,0,1,2.582-6.921,23.486,23.486,0,0,0-10.6,21.51Zm46.88-.932c-2.343,4.126-6.043,6.895-10.143,9.424-1.065.639-2.13,1.278-3.168,1.917-.958.586-1.917,1.2-2.848,1.863a11.088,11.088,0,0,0-3.78,4.073,7.276,7.276,0,0,0-.24,5.085,23.493,23.493,0,0,0,20.179-22.362Z" transform="translate(-27.248 -113.304)" fill="#91be49" fill-rule="evenodd"/>
    <g id="Group_18109" data-name="Group 18109" transform="translate(157.1 109.245)">
      <path id="Path_7290" data-name="Path 7290" d="M309.1,289.3" transform="translate(-268.636 -241.367)" fill="#114a6c"/>
      <path id="Path_7291" data-name="Path 7291" d="M356.88,215a.419.419,0,0,1-.027.107c0,.027-.027.053-.027.107H356.8a.2.2,0,0,0,.053-.107A.419.419,0,0,0,356.88,215Z" transform="translate(-303.638 -186.847)" fill="#114a6c"/>
      <path id="Path_7292" data-name="Path 7292" d="M319.2,244" transform="translate(-276.047 -208.127)" fill="#114a6c"/>
      <g id="Group_18108" data-name="Group 18108" transform="translate(34.034 7.473)">
        <g id="Group_18107" data-name="Group 18107">
          <path id="Path_7293" data-name="Path 7293" d="M285.173,146.123a8.064,8.064,0,0,0,2.05,3.541A10.2,10.2,0,0,0,293,152.751a7.575,7.575,0,0,0,1.091.106,4.346,4.346,0,0,1,1.411.319l.612.266a9.346,9.346,0,0,1,2.343,1.464c.053.053.186.106.053.213-.053.053,0,.106.027.133.16.16.319.293.453.453.08.08.133.053.213,0,.266-.186.506-.373.772-.559a.833.833,0,0,1,.266-.133c-.133.133-.266.24-.426.373-.16.16-.346.293-.506.453-.08.08-.08.106-.027.213.24.319.24.319.426-.027a3.224,3.224,0,0,1,.586-.612c.106-.106.24-.213.346-.319a.781.781,0,0,0,.16-.852l-.24-.479c-.027-.053-.08-.106-.133-.08-.106.08-.133,0-.16-.08a9.245,9.245,0,0,1-.745-4.392,3.674,3.674,0,0,1,.213-.772,9.206,9.206,0,0,0,.24-2.076,10.622,10.622,0,0,0-1.491-5.377,7.73,7.73,0,0,0-3.168-3.035,5.84,5.84,0,0,0-4.765-.24,8.874,8.874,0,0,0-4.792,3.887A5.6,5.6,0,0,0,285.173,146.123Zm11.074,6.469c0-.08.08-.08.133-.106a4.936,4.936,0,0,0,2.236-1.651c.027-.053.08-.133.16-.106s.053.106.053.16a10.008,10.008,0,0,0,.745,3.168c.053.133.053.24-.08.266-.186.133-.186.133-.346,0a10.6,10.6,0,0,0-2.8-1.65C296.327,152.671,296.247,152.671,296.247,152.592Zm-10.489-10.2a6.827,6.827,0,0,1,1.863-2.556,9.015,9.015,0,0,1,3.141-1.89,5.387,5.387,0,0,1,4.02.133,7.243,7.243,0,0,1,3.461,3.328,9.745,9.745,0,0,1,1.171,4.392,7.739,7.739,0,0,1-.719,3.7,4.623,4.623,0,0,1-1.89,2.023c.08-.053.133-.106.213-.16a4.153,4.153,0,0,0,.745-.612,5.644,5.644,0,0,0,1.384-2.822,9.335,9.335,0,0,0-.293-4.526,8.852,8.852,0,0,0-1.7-3.248,6.891,6.891,0,0,0-.985-.985,5.428,5.428,0,0,0-3.461-1.358,6.525,6.525,0,0,0-3.62,1.118,8.455,8.455,0,0,0-1.784,1.438,6.674,6.674,0,0,0-1.517,2.4,5.547,5.547,0,0,0,.319,4.18,7.8,7.8,0,0,0,1.89,2.556,9.931,9.931,0,0,0,3.035,1.97,10.892,10.892,0,0,0,2.423.666H293.4c-.08,0-.16-.027-.24-.027a9.82,9.82,0,0,1-5.75-3.035,7.6,7.6,0,0,1-1.624-2.556A5.4,5.4,0,0,1,285.759,142.4Z" transform="translate(-284.946 -137.315)" fill="#fff"/>
          <path id="Path_7294" data-name="Path 7294" d="M326.824,197.1a10.045,10.045,0,0,1,1.384.985c.053.027.08.106.133.08a.266.266,0,0,0,.133-.106c.027-.053-.053-.08-.08-.106a10.085,10.085,0,0,0-2.183-1.3,6.469,6.469,0,0,0-1.012-.346A11.437,11.437,0,0,1,326.824,197.1Z" transform="translate(-314.484 -180.598)" fill="#fff"/>
          <path id="Path_7295" data-name="Path 7295" d="M339.047,187.671a8.109,8.109,0,0,0,.559,2.236c.027.053,0,.186.133.107.08-.027.16-.08.106-.213a9.241,9.241,0,0,1-.8-3.274.026.026,0,0,0-.027-.027A4.292,4.292,0,0,0,339.047,187.671Z" transform="translate(-324.604 -173.406)" fill="#fff"/>
          <g id="Group_18106" data-name="Group 18106" transform="translate(2.738 2.454)">
            <g id="Group_18099" data-name="Group 18099" transform="translate(4.872 0.532)">
              <path id="Path_7296" data-name="Path 7296" d="M313.657,149.4a.528.528,0,1,1,.745.053A.494.494,0,0,1,313.657,149.4Z" transform="translate(-313.532 -148.532)" fill="#91be49"/>
              <path id="Path_7297" data-name="Path 7297" d="M318.556,155.2a.528.528,0,1,1,.745.053A.54.54,0,0,1,318.556,155.2Z" transform="translate(-317.127 -152.788)" fill="#91be49"/>
              <path id="Path_7298" data-name="Path 7298" d="M323.457,161a.528.528,0,1,1,.745.053A.54.54,0,0,1,323.457,161Z" transform="translate(-320.723 -157.044)" fill="#91be49"/>
              <path id="Path_7299" data-name="Path 7299" d="M328.357,166.7a.528.528,0,1,1,.745.053A.494.494,0,0,1,328.357,166.7Z" transform="translate(-324.319 -161.226)" fill="#91be49"/>
            </g>
            <g id="Group_18100" data-name="Group 18100" transform="translate(7.347 1.065)">
              <path id="Path_7300" data-name="Path 7300" d="M322.957,151.4a.528.528,0,1,1,.745.053A.5.5,0,0,1,322.957,151.4Z" transform="translate(-322.832 -150.532)" fill="#91be49"/>
              <path id="Path_7301" data-name="Path 7301" d="M327.857,157.2a.528.528,0,1,1,.745.053A.54.54,0,0,1,327.857,157.2Z" transform="translate(-326.427 -154.788)" fill="#91be49"/>
            </g>
            <g id="Group_18101" data-name="Group 18101" transform="translate(0.133 4.552)">
              <path id="Path_7302" data-name="Path 7302" d="M296.6,164.555a.528.528,0,1,1,.053-.745A.494.494,0,0,1,296.6,164.555Z" transform="translate(-295.732 -163.632)" fill="#91be49"/>
              <path id="Path_7303" data-name="Path 7303" d="M301.5,170.355a.528.528,0,1,1,.053-.745A.5.5,0,0,1,301.5,170.355Z" transform="translate(-299.327 -167.888)" fill="#91be49"/>
              <path id="Path_7304" data-name="Path 7304" d="M306.5,176.155a.528.528,0,1,1,.053-.745A.54.54,0,0,1,306.5,176.155Z" transform="translate(-302.996 -172.144)" fill="#91be49"/>
              <path id="Path_7305" data-name="Path 7305" d="M311.4,181.855a.528.528,0,1,1,.053-.745A.54.54,0,0,1,311.4,181.855Z" transform="translate(-306.592 -176.326)" fill="#91be49"/>
            </g>
            <g id="Group_18102" data-name="Group 18102" transform="translate(0.266 7.108)">
              <path id="Path_7306" data-name="Path 7306" d="M297.1,174.155a.528.528,0,1,1,.053-.745A.5.5,0,0,1,297.1,174.155Z" transform="translate(-296.232 -173.232)" fill="#91be49"/>
              <path id="Path_7307" data-name="Path 7307" d="M302,179.855a.528.528,0,1,1,.053-.745A.494.494,0,0,1,302,179.855Z" transform="translate(-299.827 -177.414)" fill="#91be49"/>
            </g>
            <g id="Group_18103" data-name="Group 18103" transform="translate(2.369)">
              <path id="Path_7308" data-name="Path 7308" d="M304.257,147.4a.528.528,0,1,1,.745.053A.5.5,0,0,1,304.257,147.4Z" transform="translate(-304.132 -146.532)" fill="#91be49"/>
              <path id="Path_7309" data-name="Path 7309" d="M309.157,153.2a.528.528,0,1,1,.745.053A.54.54,0,0,1,309.157,153.2Z" transform="translate(-307.727 -150.788)" fill="#91be49"/>
              <path id="Path_7310" data-name="Path 7310" d="M314.057,159a.528.528,0,1,1,.745.053A.54.54,0,0,1,314.057,159Z" transform="translate(-311.323 -155.044)" fill="#91be49"/>
              <path id="Path_7311" data-name="Path 7311" d="M318.957,164.7a.528.528,0,1,1,.745.053A.5.5,0,0,1,318.957,164.7Z" transform="translate(-314.919 -159.226)" fill="#91be49"/>
              <path id="Path_7312" data-name="Path 7312" d="M323.857,170.5a.528.528,0,1,1,.745.053A.54.54,0,0,1,323.857,170.5Z" transform="translate(-318.514 -163.482)" fill="#91be49"/>
              <path id="Path_7313" data-name="Path 7313" d="M328.857,176.3a.528.528,0,1,1,.745.053A.54.54,0,0,1,328.857,176.3Z" transform="translate(-322.183 -167.738)" fill="#91be49"/>
            </g>
            <g id="Group_18104" data-name="Group 18104" transform="translate(1.198 1.012)">
              <path id="Path_7314" data-name="Path 7314" d="M299.857,151.2a.528.528,0,1,1,.745.053A.54.54,0,0,1,299.857,151.2Z" transform="translate(-299.732 -150.332)" fill="#91be49"/>
              <path id="Path_7315" data-name="Path 7315" d="M304.757,157a.528.528,0,1,1,.745.053A.54.54,0,0,1,304.757,157Z" transform="translate(-303.327 -154.588)" fill="#91be49"/>
              <path id="Path_7316" data-name="Path 7316" d="M309.657,162.7a.528.528,0,1,1,.745.053A.5.5,0,0,1,309.657,162.7Z" transform="translate(-306.923 -158.77)" fill="#91be49"/>
              <path id="Path_7317" data-name="Path 7317" d="M314.556,168.5a.528.528,0,1,1,.745.053A.54.54,0,0,1,314.556,168.5Z" transform="translate(-310.519 -163.026)" fill="#91be49"/>
              <path id="Path_7318" data-name="Path 7318" d="M319.457,174.3a.528.528,0,1,1,.745.053A.54.54,0,0,1,319.457,174.3Z" transform="translate(-314.114 -167.282)" fill="#91be49"/>
              <path id="Path_7319" data-name="Path 7319" d="M324.357,180a.528.528,0,1,1,.745.053A.5.5,0,0,1,324.357,180Z" transform="translate(-317.71 -171.465)" fill="#91be49"/>
            </g>
            <g id="Group_18105" data-name="Group 18105" transform="translate(0 2.023)">
              <path id="Path_7320" data-name="Path 7320" d="M295.357,155a.528.528,0,1,1,.745.053A.54.54,0,0,1,295.357,155Z" transform="translate(-295.232 -154.132)" fill="#91be49"/>
              <path id="Path_7321" data-name="Path 7321" d="M300.357,160.7a.528.528,0,1,1,.745.053A.494.494,0,0,1,300.357,160.7Z" transform="translate(-298.901 -158.314)" fill="#91be49"/>
              <path id="Path_7322" data-name="Path 7322" d="M305.257,166.5a.528.528,0,1,1,.745.053A.54.54,0,0,1,305.257,166.5Z" transform="translate(-302.496 -162.57)" fill="#91be49"/>
              <path id="Path_7323" data-name="Path 7323" d="M310.157,172.3a.528.528,0,1,1,.745.053A.54.54,0,0,1,310.157,172.3Z" transform="translate(-306.092 -166.826)" fill="#91be49"/>
              <path id="Path_7324" data-name="Path 7324" d="M315.057,178a.528.528,0,1,1,.745.053A.5.5,0,0,1,315.057,178Z" transform="translate(-309.688 -171.009)" fill="#91be49"/>
              <path id="Path_7325" data-name="Path 7325" d="M319.957,183.8a.528.528,0,1,1,.745.053A.54.54,0,0,1,319.957,183.8Z" transform="translate(-313.283 -175.265)" fill="#91be49"/>
            </g>
          </g>
        </g>
        <path id="Path_7326" data-name="Path 7326" d="M351.522,220.135a5.008,5.008,0,0,1-.426-.612c-.027-.027-.053-.053-.027-.106a2.611,2.611,0,0,1,.346-.586,3.5,3.5,0,0,1,.559-.532c.24-.24.532-.426.586-.8a1.333,1.333,0,0,1,.186.213c.186.266.186.186-.053.4a5.556,5.556,0,0,0-.586.532c.266-.186.532-.373.8-.586.106-.08.186-.08.266.027.16.186.319.373.479.586.186.24.186.373-.08.559-.24.186-.479.346-.719.532-.319.24-.666.453-.958.719" transform="translate(-333.459 -196.154)" fill="#fff"/>
        <path id="Path_7327" data-name="Path 7327" d="M343.656,205.2c-.133.559-.586.772-.932,1.118a3.825,3.825,0,0,0-.479.666c-.027.053-.027.08,0,.106.213.266.4.559.612.852.027-.027.053-.053.053-.08a3.313,3.313,0,0,1,1.012-1.091,2.01,2.01,0,0,0,.346-.612c.027-.053,0-.08-.027-.107A5.42,5.42,0,0,0,343.656,205.2Z" transform="translate(-326.977 -187.128)" fill="#fff"/>
        <path id="Path_7328" data-name="Path 7328" d="M340.7,201.1c-.106.532-.506.745-.825,1.038a3.5,3.5,0,0,0-.559.719c-.053.053-.027.106.027.133.186.24.373.506.559.745.053.053.08.08.133,0a4.16,4.16,0,0,1,1.038-1.118c.186-.16.213-.4.319-.612.027-.027,0-.053-.027-.08A7.469,7.469,0,0,1,340.7,201.1Z" transform="translate(-324.824 -184.12)" fill="#fff"/>
        <path id="Path_7329" data-name="Path 7329" d="M349.681,213.5c-.133.532-.612.772-.958,1.118a5.515,5.515,0,0,0-.453.639c-.027.053,0,.08.027.106.213.266.4.559.612.825a1.113,1.113,0,0,0,.213-.319,2.393,2.393,0,0,1,.426-.479,1.83,1.83,0,0,1,.346-.293,1.259,1.259,0,0,0,.426-.666c.027-.053,0-.08-.027-.133-.053-.107-.213-.16-.133-.293-.08,0-.107-.053-.16-.106A2.1,2.1,0,0,0,349.681,213.5Z" transform="translate(-331.404 -193.219)" fill="#fff"/>
        <path id="Path_7330" data-name="Path 7330" d="M346.681,209.3c-.106.559-.559.772-.905,1.091a3.994,3.994,0,0,0-.506.666c-.027.053,0,.08.027.133.186.24.373.506.559.745.053.08.106.08.133,0a3.265,3.265,0,0,1,.958-1.038,1.442,1.442,0,0,0,.373-.639c.027-.053,0-.08-.027-.133C347.106,209.859,346.92,209.593,346.681,209.3Z" transform="translate(-329.203 -190.137)" fill="#fff"/>
      </g>
      <path id="Path_7331" data-name="Path 7331" d="M347.6,201.1" transform="translate(-296.887 -176.647)" fill="#114a6c"/>
      <path id="Path_7332" data-name="Path 7332" d="M364.2,222.9Z" transform="translate(-309.068 -192.644)" fill="#114a6c"/>
      <path id="Path_7333" data-name="Path 7333" d="M167.617,134.821a1.736,1.736,0,0,1,.586-.905,3.015,3.015,0,0,1,1.438-.426c.586-.053,1.145-.053,1.7-.133a3.771,3.771,0,0,0,.532-.106c1.225-.319,1.73-.878,1.65-2.13-.133-1.917-2.05-4.339-4.1-3.008a3.46,3.46,0,0,0-.852.8c-.213.266-.426.586-.639.852a2.07,2.07,0,0,1-.692.666,1.757,1.757,0,0,1-1.464.053,3.758,3.758,0,0,0-.106,1.225,3.979,3.979,0,0,0,1.943,3.115Zm-1.624-4.951a.93.93,0,0,0,1.012-.053,2.909,2.909,0,0,0,.639-.639,10.426,10.426,0,0,1,.666-.852,3.8,3.8,0,0,1,.905-.825,4,4,0,0,0-3.221,2.369Zm7.028,3.514a4.614,4.614,0,0,1-2.236.612,4.922,4.922,0,0,1-.612.027,3.973,3.973,0,0,0-.559.053,2.06,2.06,0,0,0-.878.319,1.185,1.185,0,0,0-.426.745,3.636,3.636,0,0,0,1.6.213,3.966,3.966,0,0,0,3.115-1.97Z" transform="translate(-163.384 -122.64)" fill="#91be49" fill-rule="evenodd"/>
      <path id="Path_7334" data-name="Path 7334" d="M174.164,329.506c10.968,1.012,21.536-8.785,33.915-9.9a26.7,26.7,0,0,1,4.1-.053v-.027a21.181,21.181,0,0,1,3.647.559v-.027l1.517.532a13.074,13.074,0,0,1,7.108,5.4s-1.837-2-7.693-2.5c-1.278-.08-2.609-.106-3.86-.106-.346,0-.692.027-1.038.027-9.8.506-24.518,12.751-36.95,12.778S157.1,321.839,157.1,321.839A27.9,27.9,0,0,0,174.164,329.506Z" transform="translate(-157.1 -263.524)" fill="#fff"/>
      <path id="Path_7335" data-name="Path 7335" d="M242.893,155.26a24.452,24.452,0,0,0-2.183-4.978,28.818,28.818,0,0,1-1.331-2.822,10.782,10.782,0,0,1-1.225.453,8.914,8.914,0,0,1-1.438.319c-.4.053-.665.08-.665.08s.266-.08.639-.186a10.55,10.55,0,0,0,1.3-.586,6.393,6.393,0,0,0,1.171-.745c.053-.053.107-.08.133-.106-.186-.453-.612-1.145-.719-1.358a.886.886,0,0,1-.08-.612.511.511,0,0,0-.319-.426c-.107,0,.027-.373-.08-.559a.767.767,0,0,0-.346-.24s.293-.825.426-1.171a1.378,1.378,0,0,0,.053-.559c.319-.266.559-.612.293-.985a1.475,1.475,0,0,0-.373-.346,1.251,1.251,0,0,0,.426-.532.673.673,0,0,0-.186-.639.492.492,0,0,0-.559-.053.966.966,0,0,0-.24-1.038c-.16-.186-.453,0-.453,0a1.814,1.814,0,0,0-.213-.825.913.913,0,0,0-.878-.346,1.6,1.6,0,0,0-.373.186c-.453-.612-.878-1.2-1.171-1.6a3.89,3.89,0,0,1-.24-.346,4.908,4.908,0,0,0-.08-1.3.421.421,0,0,0-.692-.133.408.408,0,0,0-.133.186c-.027-.053-.08-.08-.106-.133a1.79,1.79,0,0,1-1.3,1.225,2.03,2.03,0,0,1,.213.293c.133.186.293.373.426.586a7.636,7.636,0,0,1,.825-.772c.186-.16.213-.4.319-.612v-.027l.133.186c-.133.559-.586.772-.932,1.091a2.9,2.9,0,0,0-.346.453l-.053.24-.08.08a2.785,2.785,0,0,0,.213.293c.133.186.319.453.506.719l-.107-.16.053-.053a3.313,3.313,0,0,1,1.012-1.091,2.01,2.01,0,0,0,.346-.612v-.053l.133.186c-.107.559-.559.772-.905,1.091a4,4,0,0,0-.506.666.1.1,0,0,0-.027.08l-.053-.053c0,.186-.053,2.13-.107,3.061a14.953,14.953,0,0,0,.932,3.567h0a7.564,7.564,0,0,0,1.171-.16c.958-.186,1.943-.4,1.943-.4s-.905.4-1.837.772a5.425,5.425,0,0,1-1.358.453,1.193,1.193,0,0,1-.293.027c.16.453.559,1.278.745,1.757.24.639.346,1.544.506,1.624a1.027,1.027,0,0,0,.479.027s.8,2.236,1.091,3.035a24.776,24.776,0,0,1,.666,3.035,7.986,7.986,0,0,1,.08,1.943,6.368,6.368,0,0,1,.559.346c.745.453,1.464.932,1.464.932s-.8-.293-1.624-.559l-.719-.24a8.976,8.976,0,0,1-1.491-.373,7.942,7.942,0,0,0-2.769-.027,1.637,1.637,0,0,1-1.491.319,4.858,4.858,0,0,1-1.331-.107,1.087,1.087,0,0,0,.266-.266,10.6,10.6,0,0,0-1.571-.213,7.208,7.208,0,0,1-2.343-.692,7.173,7.173,0,0,0-2.449-.213,8.7,8.7,0,0,0-1.677.479l-.346-.346a4.474,4.474,0,0,0-.559-.479c-.107-.08-.532-.373-.586-.532s.852-2.742,2.875-2.928a6.686,6.686,0,0,0,2.369-1.384h0a14.909,14.909,0,0,1,1.145-1.091c.053-.053.106-.08.16-.133a6.093,6.093,0,0,0,.213-.745,5.577,5.577,0,0,0,.16-.825,24.834,24.834,0,0,0-.133-3.993c-.319-1.863-2.156-3.221-3.647-4.126a4.359,4.359,0,0,0-1.571-.506,1.868,1.868,0,0,1,.266.213,2.3,2.3,0,0,1,.373.346c.106.133.24.24.373.4a4.857,4.857,0,0,0,.346.426,7.387,7.387,0,0,1,.586.985,9.118,9.118,0,0,1,.453,1.065c.133.373.24.745.346,1.118.08.373.16.745.24,1.091.053.346.106.719.133,1.038s.053.639.08.932.027.559.027.8v1.145s-.027-.186-.053-.532c0-.16-.027-.373-.053-.612,0-.24-.053-.506-.08-.772-.053-.293-.08-.586-.133-.905s-.133-.666-.213-1.012-.186-.692-.293-1.065c-.133-.346-.24-.719-.4-1.065a8.516,8.516,0,0,0-.506-.985,7.317,7.317,0,0,0-.612-.878,4.767,4.767,0,0,0-.346-.373,3.782,3.782,0,0,0-.346-.319c-.107-.107-.24-.186-.346-.293-.106-.08-.24-.16-.346-.24a7.127,7.127,0,0,0-.639-.319,2.871,2.871,0,0,0-.532-.16.338.338,0,0,0-.16-.027c-.532.027-.932.08-1.012.08-.186-.027-1.6-1.624-2.556-2.289a9.02,9.02,0,0,1,.692,1.438c.266.612.532,1.251.825,1.863a10.963,10.963,0,0,0,1.091,1.7,8.061,8.061,0,0,0,.612.692c.213.213.426.4.612.559a9.338,9.338,0,0,0,1.012.745l.4.24-.426-.213a10.183,10.183,0,0,1-1.065-.666c-.213-.16-.426-.346-.666-.532-.213-.213-.453-.426-.692-.665a10.188,10.188,0,0,1-1.251-1.677c-.373-.612-.692-1.225-.985-1.81a7.846,7.846,0,0,0-.879-1.464,1.545,1.545,0,0,0-.4-.346,3.981,3.981,0,0,0-1.517,2.662c-.373,1.7,1.278,3.514,1.278,3.514s-.186.08-.852.373-.186,1.2-.186,1.2a3.919,3.919,0,0,1-.453.532c-.293.293-.293,1.331-.293,1.331a7,7,0,0,0-1.225,1.81c-.266.745,1.171,1.757,1.571,2.21a1.682,1.682,0,0,1,.453.852s-.905-.107-1.7-.293-1.97-1.651-2.263-1.89c-.319-.24-.373-.958-.692-1.6a10.765,10.765,0,0,0-2.449-3.141,9.851,9.851,0,0,1-3.035-4.153,18.885,18.885,0,0,1-1.491-4.579,16.618,16.618,0,0,0-1.038-3.461c-.319-.719-1.517-4.073-1.863-5.031a6.2,6.2,0,0,1-1.012.213,9.817,9.817,0,0,1-2.023.027,10.152,10.152,0,0,0,1.943-.426,4.581,4.581,0,0,0,1.145-.559l.053-.053c-.08-.453-.293-1.3-.373-1.73a20.925,20.925,0,0,0-.346-2.076.432.432,0,0,0-.293-.24.706.706,0,0,1-.16.133,16.082,16.082,0,0,1-1.544-5.67,21.97,21.97,0,0,0-1.438-5.83c-.16-.266-.532-.666-.24-.053a10.436,10.436,0,0,1,.8,2.689,14.969,14.969,0,0,0-1.7-3.461c-.186-.319-.985-.666-.426.106a14.3,14.3,0,0,1,2.076,4.472,21.447,21.447,0,0,0-2.476-4.046c-.586-.8-1.012.266-.586.905a7.566,7.566,0,0,1,1.517,3.434c.053.612-.293.133-.825-.426a14,14,0,0,0-1.411-1.225c-.772-.586-1.438.106-.373.852a5.31,5.31,0,0,1,2.023,3.274,4.141,4.141,0,0,0-1.118-1.73c-.453.666-.133,1.145.453,1.464.692.4.772,1.065.745,1.863-.053,1.677.905,1.89,1.278,3.221.08.319.213.719.346,1.171a1.068,1.068,0,0,1-.4-.08c-.053-.027-.106-.027-.16-.053a31.447,31.447,0,0,0,.719,3.887c.08.16.373.213.373.213a8.091,8.091,0,0,1,.133,1.677c0,.905.559,4.286.692,5.3.106,1.012.293,2.476.453,3.141a5.942,5.942,0,0,0,.772,1.73c.293.506,1.171,2.183,2.05,3.94a68.78,68.78,0,0,0,4.472,7.241,3.419,3.419,0,0,1,.559,2.955c-.027.24-.16,2.423-.479,5.564-.053.612-.24,1.358-.346,2.023l.985.24c-.106.053-.213.133-.319.186-.293.16-.532.319-.772.426-.08.027-.133.08-.213.107a2,2,0,0,0-.133.426c-.24,3.434-.666,6.921-.586,9.93.027,1.411.16,2.289.186,3.354V176a45.226,45.226,0,0,0,16.9-3.993c0-.08-.027-.16,0-.213.027-.186.319-.213.4-.586.107-.373.878-.905,1.571-1.97a8.051,8.051,0,0,0,.905-2.8c0-.027.027-.053.027-.08.027-.266.08-.612.106-1.012l-3.035-1.038,3.7.878a15.064,15.064,0,0,1,2.5-2.742,1.85,1.85,0,0,1,1.251-.08,2.484,2.484,0,0,0,.186.293,7.916,7.916,0,0,1,2.369.106,3.246,3.246,0,0,1-.453-.133l-.24-.08a1.754,1.754,0,0,0,.24.053c.16.027.373.08.666.106.559.08,1.278.107,2.023.133.745,0,1.464-.027,2.023-.053.133,0,.266-.027.373-.027,1.145-.16,4.179-.666,5.511-.932a4.566,4.566,0,0,0,2.875-1.464C244.278,159.68,243.24,156.645,242.893,155.26Zm-7.214-16.372a5.281,5.281,0,0,0-.559.532,4.236,4.236,0,0,0-.346.586l-.719-1.145-.213-.319c.053.053.08.027.106-.027a3.266,3.266,0,0,1,.958-1.038,1.441,1.441,0,0,0,.373-.639v-.053l.24.346-.107-.106c-.133.532-.612.772-.958,1.118a5.511,5.511,0,0,0-.453.639c-.027.053,0,.08.027.106.213.266.4.559.612.825a1.114,1.114,0,0,0,.213-.319,2.392,2.392,0,0,1,.426-.479,1.833,1.833,0,0,1,.346-.293,1.259,1.259,0,0,0,.426-.666V137.9l.16.213C236.238,138.463,235.919,138.649,235.679,138.889Zm-13.71,3.248c-.053-.106-.106-.24-.213-.426a7.339,7.339,0,0,0-.719-1.171,4.9,4.9,0,0,0-.453-.586c-.16-.186-.293-.346-.426-.479l-.319-.319a.591.591,0,0,0-.133-.106l.16.08a3.906,3.906,0,0,1,.4.24,4.637,4.637,0,0,1,.985,1.038,5.5,5.5,0,0,1,.4.665c.106.213.186.426.266.612.053.186.106.346.133.453a.851.851,0,0,1,.027.186A1.93,1.93,0,0,1,221.969,142.136Z" transform="translate(-182.357 -109.245)" fill="#fff"/>
    </g>
    <g id="Group_18110" data-name="Group 18110" transform="translate(171.688 180.045)">
      <path id="Path_7336" data-name="Path 7336" d="M260.678,414.74l-3.541,4.605-1.7-4.073-2.05.186h0l-1.411.16,1.171.852-1.544,6.469,2.423-.24.692-2.982.932,2.023,1.89-.186,1.97-2.316-.719,2.982,2.423-.24,1.784-7.48Z" transform="translate(-241.031 -404.038)" fill="#114a6c"/>
      <path id="Path_7337" data-name="Path 7337" d="M350.975,380.87l1.331-5.67-2.423.24h0l-1.384.133,1.145.852-1.544,6.5,6.6-.666.426-1.81Z" transform="translate(-311.842 -375.2)" fill="#114a6c"/>
      <path id="Path_7338" data-name="Path 7338" d="M318.664,379.016l5-.506.426-1.81-6.575.665h0l-2.183.213,1.118.825-1.225,5.138a1.055,1.055,0,0,0,1.225,1.225l5.883-.586.426-1.81-5,.506.133-.612-.666-.479,1.544-.16h0l3.674-.373.346-1.517-4.446.453.106-.453-.852-.639,1.065-.08Z" transform="translate(-287.704 -376.301)" fill="#114a6c"/>
      <path id="Path_7339" data-name="Path 7339" d="M290.171,380.91a1.632,1.632,0,0,0-1.331-.346l-5.857.586h0l-1.411.133,1.171.852L281.2,388.6l6.1-.612a2.512,2.512,0,0,0,1.438-.612,2.437,2.437,0,0,0,.745-1.251l.958-4.073A1.009,1.009,0,0,0,290.171,380.91Zm-2.183,1.65-.852,3.594a.234.234,0,0,1-.186.16l-2.875.293.719-3.035-.958-.719,1.171-.107h0l2.875-.293C287.988,382.427,288.015,382.454,287.988,382.56Z" transform="translate(-262.752 -379.126)" fill="#114a6c"/>
      <path id="Path_7340" data-name="Path 7340" d="M221.377,388.26a1.1,1.1,0,0,0-.559-.692,1.917,1.917,0,0,0-1.065-.186l-5,.506-1.065.107-1.411.133,1.171.878-1.544,6.469,2.422-.24.506-2.13,3.913-.4a2.5,2.5,0,0,0,2.183-1.89l.453-1.917A1.3,1.3,0,0,0,221.377,388.26Zm-2.476,1.118-.373,1.544a.233.233,0,0,1-.186.16l-3.115.319.24-1.065-.878-.639,1.065-.107h0l3.115-.319a.146.146,0,0,1,.133.08Z" transform="translate(-211.9 -384.134)" fill="#114a6c"/>
      <path id="Path_7341" data-name="Path 7341" d="M250.206,384.4l-2.4.24h0l-1.438.16.879.639-4.952,7.055,2.609-.266,2.9-4.233.586-.852h0l.772,2.822-2.263.213,2.21,1.624.586-.053,2.5-.24Z" transform="translate(-234.207 -381.951)" fill="#114a6c"/>
      <path id="Path_7342" data-name="Path 7342" d="M298.064,413.416l5-.506.426-1.81-6.575.666h0l-2.183.213,1.118.825-1.225,5.138a1.055,1.055,0,0,0,1.225,1.225l5.883-.586.426-1.81-5,.506.133-.612-.666-.479,1.544-.16h0l3.674-.373.346-1.517-4.446.453.106-.453L297,413.5l1.065-.08Z" transform="translate(-272.587 -401.543)" fill="#114a6c"/>
    </g>
    <g id="Group_18111" data-name="Group 18111" transform="translate(171.156 179.512)">
      <path id="Path_7343" data-name="Path 7343" d="M258.678,412.74l-3.541,4.605-1.7-4.073-2.05.186h0l-1.411.16,1.171.852-1.544,6.469,2.423-.24.692-2.982.932,2.023,1.89-.186,1.97-2.316-.719,2.982,2.423-.24,1.784-7.481Z" transform="translate(-239.031 -402.038)" fill="#fff"/>
      <path id="Path_7344" data-name="Path 7344" d="M348.975,378.87l1.331-5.67-2.423.24h0l-1.384.133,1.145.852-1.544,6.5,6.6-.665.426-1.81Z" transform="translate(-309.842 -373.2)" fill="#fff"/>
      <path id="Path_7345" data-name="Path 7345" d="M316.664,377.016l5-.506.426-1.81-6.575.666h0l-2.183.213,1.118.825-1.225,5.138a1.055,1.055,0,0,0,1.225,1.225l5.883-.586.426-1.81-5,.506.133-.612-.666-.479,1.544-.16h0l3.674-.373.346-1.517-4.446.453.106-.453-.852-.639,1.065-.08Z" transform="translate(-285.704 -374.301)" fill="#fff"/>
      <path id="Path_7346" data-name="Path 7346" d="M288.171,378.91a1.632,1.632,0,0,0-1.331-.346l-5.857.586h0l-1.411.133,1.171.852L279.2,386.6l6.1-.612a2.513,2.513,0,0,0,1.438-.612,2.438,2.438,0,0,0,.745-1.251l.958-4.073A1.009,1.009,0,0,0,288.171,378.91Zm-2.183,1.651-.852,3.594a.234.234,0,0,1-.186.16l-2.875.293.719-3.035-.958-.719,1.171-.107h0l2.875-.293C285.988,380.427,286.015,380.454,285.988,380.56Z" transform="translate(-260.752 -377.126)" fill="#fff"/>
      <path id="Path_7347" data-name="Path 7347" d="M219.377,386.26a1.1,1.1,0,0,0-.559-.692,1.917,1.917,0,0,0-1.065-.186l-5,.506-1.065.106-1.411.133,1.171.878-1.544,6.469,2.423-.24.506-2.13,3.913-.4a2.5,2.5,0,0,0,2.183-1.89l.453-1.917A1.3,1.3,0,0,0,219.377,386.26Zm-2.476,1.118-.373,1.544a.234.234,0,0,1-.186.16l-3.115.319.24-1.065-.879-.639,1.065-.106h0l3.115-.319a.146.146,0,0,1,.133.08Z" transform="translate(-209.9 -382.134)" fill="#fff"/>
      <path id="Path_7348" data-name="Path 7348" d="M248.206,382.4l-2.4.24h0l-1.438.16.878.639-4.952,7.055,2.609-.266,2.9-4.233.586-.852h0l.772,2.822-2.263.213,2.21,1.624.586-.053,2.5-.24Z" transform="translate(-232.207 -379.951)" fill="#fff"/>
      <path id="Path_7349" data-name="Path 7349" d="M296.064,411.416l5-.506.426-1.81-6.575.666h0l-2.183.213,1.118.825-1.225,5.138a1.055,1.055,0,0,0,1.225,1.225l5.883-.586.426-1.81-5,.506.133-.612-.665-.479,1.544-.16h0l3.674-.373.346-1.517-4.446.453.106-.453L295,411.5l1.065-.08Z" transform="translate(-270.587 -399.543)" fill="#fff"/>
    </g>
  </g>
</svg>
