<?xml version="1.0" encoding="utf-8"?>
<!-- Generator: Adobe Illustrator 27.8.1, SVG Export Plug-In . SVG Version: 6.00 Build 0)  -->
<svg version="1.1" id="Layer_1" xmlns="http://www.w3.org/2000/svg" xmlns:xlink="http://www.w3.org/1999/xlink" x="0px" y="0px"
	 viewBox="0 0 254.3 355.1" style="enable-background:new 0 0 254.3 355.1;" xml:space="preserve">
<style type="text/css">
	.st0{fill:#114A6C;}
	.st1{fill-rule:evenodd;clip-rule:evenodd;fill:#91BE49;}
	.st2{fill:#91BE49;}
	.st3{fill:#FFFFFF;}
</style>
<path class="st0" d="M126.1,137.8C67,137.8,19,185.8,19,245s48,107.1,107.1,107.1c59.2,0,107.1-48,107.1-107.1
	S185.3,137.8,126.1,137.8z M126.1,342c-53.6,0-97-43.4-97-97s43.4-97,97-97c53.6,0,97,43.4,97,97S179.7,342,126.1,342z"/>
<path class="st1" d="M121.8,333.2c-1.7-8.2-1.3-16.3,2.6-24c5.1-10.1,15.1-17.3,24.4-23.2c10.9-6.9,22.3-12.9,32.7-20.6
	c3.2-2.4,6.3-4.9,9.3-7.6c20.7-19.2,25.1-35.6,10.6-59.1c-22.7-36.7-85.9-64.9-113.1-17.4c-4.4,7.7-7,15.8-8.7,24.4
	c-1.6,7.8-2.4,15.7-3.7,23.6c-1.2,7-2.9,14.3-6.7,20.4c-6.4,10.3-17.2,14.6-28.6,16.5c2.2,8.9,5.8,17.4,10.6,25.2
	C66.4,316.3,92.8,331.8,121.8,333.2L121.8,333.2z M38.2,251.9c8,1.3,16.1-4.9,19.7-11.7c3.1-5.7,4.7-12.9,5.9-19.3
	c1.6-7.9,2.7-15.9,4.5-23.8c2-9,4.8-18.1,9.7-26C50.9,188.8,35.7,219.7,38.2,251.9L38.2,251.9z M214.3,248.4
	c-8.8,15.5-22.7,25.9-38.1,35.4c-4,2.4-8,4.8-11.9,7.2c-3.6,2.2-7.2,4.5-10.7,7c-5.6,4-11.3,9-14.2,15.3c-2.9,6.2-2.6,12.7-0.9,19.1
	c12.1-1.7,23.6-5.9,34-12.3C197.8,304.6,213.2,277.6,214.3,248.4L214.3,248.4z"/>
<g>
	<path class="st0" d="M152.8,181.9"/>
	<path class="st0" d="M200.8,107.6c0,0,0,0.1-0.1,0.4c0,0.1-0.1,0.2-0.1,0.4c0,0-0.1,0-0.1,0c0.1-0.1,0.2-0.3,0.2-0.4
		C200.8,107.7,200.8,107.6,200.8,107.6z"/>
	<path class="st0" d="M163,136.6"/>
	<g>
		<g>
			<path class="st0" d="M129.5,63c1.4,5.1,4,9.5,7.7,13.3c6,6.2,13.2,10.2,21.7,11.6c1.4,0.2,2.7,0.4,4.1,0.4
				c1.9-0.1,3.5,0.7,5.3,1.2l2.3,1c3.2,1.4,6.1,3.2,8.8,5.5c0.2,0.2,0.7,0.4,0.2,0.8c-0.2,0.2,0,0.4,0.1,0.5
				c0.6,0.6,1.2,1.1,1.7,1.7c0.3,0.3,0.5,0.2,0.8,0c1-0.7,1.9-1.4,2.9-2.1c0.3-0.2,0.6-0.4,1-0.5c-0.5,0.5-1,0.9-1.6,1.4
				c-0.6,0.6-1.3,1.1-1.9,1.7c-0.3,0.3-0.3,0.4-0.1,0.8c0.9,1.2,0.9,1.2,1.6-0.1c0.6-1,1.5-1.6,2.2-2.3c0.4-0.4,0.9-0.8,1.3-1.2
				c0.8-0.7,1.1-2.3,0.6-3.2c-0.3-0.6-0.6-1.2-0.9-1.8c-0.1-0.2-0.3-0.4-0.5-0.3c-0.4,0.3-0.5,0-0.6-0.3c-2.3-5.3-3.2-10.8-2.8-16.5
				c0.1-1,0.5-2,0.8-2.9c0.6-2.6,0.9-5.2,0.9-7.8c-0.1-7.2-1.9-14-5.6-20.2c-2.9-4.9-6.8-8.8-11.9-11.4c-5.8-2.9-11.9-3.1-17.9-0.9
				c-7.7,2.8-13.8,7.5-18,14.6C128.5,51.2,127.9,57,129.5,63z M171.1,87.3c0-0.3,0.3-0.3,0.5-0.4c3.4-1.3,6.2-3.3,8.4-6.2
				c0.1-0.2,0.3-0.5,0.6-0.4c0.3,0.1,0.2,0.4,0.2,0.6c0.3,4.1,1.2,8.1,2.8,11.9c0.2,0.5,0.2,0.9-0.3,1c-0.7,0.5-0.7,0.5-1.3,0
				c-3.2-2.6-6.7-4.7-10.5-6.2C171.4,87.6,171.1,87.6,171.1,87.3z M131.7,49c1.5-3.8,4-6.9,7-9.6c3.5-3.1,7.3-5.6,11.8-7.1
				c5.1-1.7,10.1-1.7,15.1,0.5c5.9,2.6,10,7,13,12.5c2.8,5.1,4.2,10.7,4.4,16.5c0.2,4.8-0.6,9.5-2.7,13.9c-1.6,3.2-3.9,5.8-7.1,7.6
				c0.3-0.2,0.5-0.4,0.8-0.6c1-0.7,2-1.4,2.8-2.3c2.8-3,4.4-6.6,5.2-10.6c1.1-5.7,0.6-11.4-1.1-17c-1.3-4.5-3.4-8.6-6.4-12.2
				c-1.1-1.4-2.4-2.6-3.7-3.7c-3.8-3.2-8.1-5-13-5.1c-5-0.1-9.4,1.6-13.6,4.2c-2.5,1.5-4.7,3.3-6.7,5.4c-2.5,2.6-4.5,5.6-5.7,9
				c-1.8,5.4-1.1,10.7,1.2,15.7c1.7,3.7,4.1,6.9,7.1,9.6c3.3,3.2,7.2,5.6,11.4,7.4c2.9,1.2,6,2,9.1,2.5c-0.1,0-0.1,0-0.2,0
				c-0.3,0-0.6-0.1-0.9-0.1c-8.5-1.3-15.7-5.2-21.6-11.4c-2.7-2.8-4.7-6-6.1-9.6C129.8,59.5,129.6,54.2,131.7,49z"/>
			<path class="st0" d="M175,91.8c1.8,1.1,3.6,2.3,5.2,3.7c0.2,0.1,0.3,0.4,0.5,0.3c0.2-0.1,0.4-0.2,0.5-0.4
				c0.1-0.2-0.2-0.3-0.3-0.4c-2.5-2-5.3-3.6-8.2-4.9c-1.2-0.5-2.5-1-3.8-1.3C170.9,89.7,173,90.7,175,91.8z"/>
			<path class="st0" d="M182.9,83.5c0.3,2.9,1,5.7,2.1,8.4c0.1,0.2,0,0.7,0.5,0.4c0.3-0.1,0.6-0.3,0.4-0.8c-1.8-3.9-2.7-8-3-12.3
				c0,0,0-0.1-0.1-0.1C182.6,80.6,182.7,82.1,182.9,83.5z"/>
			<g>
				<g>
					<path class="st2" d="M157.7,44.4c-0.7-0.8-0.6-2.1,0.2-2.8c0.8-0.7,2.1-0.6,2.8,0.2c0.7,0.8,0.6,2.1-0.2,2.8
						C159.6,45.4,158.4,45.3,157.7,44.4z"/>
					<path class="st2" d="M162.6,50.2c-0.7-0.8-0.6-2.1,0.2-2.8c0.8-0.7,2.1-0.6,2.8,0.2c0.7,0.8,0.6,2.1-0.2,2.8
						C164.5,51.1,163.3,51,162.6,50.2z"/>
					<path class="st2" d="M167.5,56c-0.7-0.8-0.6-2.1,0.2-2.8c0.8-0.7,2.1-0.6,2.8,0.2c0.7,0.8,0.6,2.1-0.2,2.8
						C169.4,56.9,168.2,56.8,167.5,56z"/>
					<path class="st2" d="M172.4,61.7c-0.7-0.8-0.6-2.1,0.2-2.8c0.8-0.7,2.1-0.6,2.8,0.2c0.7,0.8,0.6,2.1-0.2,2.8
						C174.4,62.7,173.1,62.6,172.4,61.7z"/>
				</g>
				<g>
					<path class="st2" d="M167,46.4c-0.7-0.8-0.6-2.1,0.2-2.8c0.8-0.7,2.1-0.6,2.8,0.2c0.7,0.8,0.6,2.1-0.2,2.8
						C169,47.4,167.7,47.3,167,46.4z"/>
					<path class="st2" d="M171.9,52.2c-0.7-0.8-0.6-2.1,0.2-2.8c0.8-0.7,2.1-0.6,2.8,0.2c0.7,0.8,0.6,2.1-0.2,2.8
						C173.9,53.1,172.6,53,171.9,52.2z"/>
				</g>
				<g>
					<path class="st2" d="M142.7,59.7c-0.8,0.7-2.1,0.6-2.8-0.2c-0.7-0.8-0.6-2.1,0.2-2.8c0.8-0.7,2.1-0.6,2.8,0.2
						C143.7,57.8,143.6,59,142.7,59.7z"/>
					<path class="st2" d="M147.6,65.5c-0.8,0.7-2.1,0.6-2.8-0.2c-0.7-0.8-0.6-2.1,0.2-2.8c0.8-0.7,2.1-0.6,2.8,0.2
						C148.6,63.5,148.5,64.8,147.6,65.5z"/>
					<path class="st2" d="M152.6,71.3c-0.8,0.7-2.1,0.6-2.8-0.2c-0.7-0.8-0.6-2.1,0.2-2.8c0.8-0.7,2.1-0.6,2.8,0.2
						C153.5,69.3,153.4,70.6,152.6,71.3z"/>
					<path class="st2" d="M157.5,77c-0.8,0.7-2.1,0.6-2.8-0.2c-0.7-0.8-0.6-2.1,0.2-2.8c0.8-0.7,2.1-0.6,2.8,0.2
						C158.4,75.1,158.3,76.3,157.5,77z"/>
				</g>
				<g>
					<path class="st2" d="M143.2,69.3c-0.8,0.7-2.1,0.6-2.8-0.2c-0.7-0.8-0.6-2.1,0.2-2.8c0.8-0.7,2.1-0.6,2.8,0.2
						C144.2,67.3,144.1,68.6,143.2,69.3z"/>
					<path class="st2" d="M148.1,75c-0.8,0.7-2.1,0.6-2.8-0.2c-0.7-0.8-0.6-2.1,0.2-2.8c0.8-0.7,2.1-0.6,2.8,0.2
						C149.1,73.1,149,74.3,148.1,75z"/>
				</g>
				<g>
					<path class="st2" d="M148.3,42.4c-0.7-0.8-0.6-2.1,0.2-2.8c0.8-0.7,2.1-0.6,2.8,0.2c0.7,0.8,0.6,2.1-0.2,2.8
						C150.3,43.4,149,43.3,148.3,42.4z"/>
					<path class="st2" d="M153.2,48.2c-0.7-0.8-0.6-2.1,0.2-2.8c0.8-0.7,2.1-0.6,2.8,0.2c0.7,0.8,0.6,2.1-0.2,2.8
						C155.2,49.1,153.9,49,153.2,48.2z"/>
					<path class="st2" d="M158.1,54c-0.7-0.8-0.6-2.1,0.2-2.8c0.8-0.7,2.1-0.6,2.8,0.2c0.7,0.8,0.6,2.1-0.2,2.8
						C160.1,54.9,158.8,54.8,158.1,54z"/>
					<path class="st2" d="M163,59.7c-0.7-0.8-0.6-2.1,0.2-2.8c0.8-0.7,2.1-0.6,2.8,0.2c0.7,0.8,0.6,2.1-0.2,2.8
						C165,60.7,163.8,60.6,163,59.7z"/>
					<path class="st2" d="M168,65.5c-0.7-0.8-0.6-2.1,0.2-2.8c0.8-0.7,2.1-0.6,2.8,0.2c0.7,0.8,0.6,2.1-0.2,2.8
						C169.9,66.4,168.7,66.3,168,65.5z"/>
					<path class="st2" d="M172.9,71.3c-0.7-0.8-0.6-2.1,0.2-2.8c0.8-0.7,2.1-0.6,2.8,0.2c0.7,0.8,0.6,2.1-0.2,2.8
						C174.8,72.2,173.6,72.1,172.9,71.3z"/>
				</g>
				<g>
					<path class="st2" d="M143.9,46.2c-0.7-0.8-0.6-2.1,0.2-2.8c0.8-0.7,2.1-0.6,2.8,0.2c0.7,0.8,0.6,2.1-0.2,2.8
						C145.9,47.1,144.6,47,143.9,46.2z"/>
					<path class="st2" d="M148.8,52c-0.7-0.8-0.6-2.1,0.2-2.8c0.8-0.7,2.1-0.6,2.8,0.2c0.7,0.8,0.6,2.1-0.2,2.8
						C150.8,52.9,149.5,52.8,148.8,52z"/>
					<path class="st2" d="M153.7,57.7c-0.7-0.8-0.6-2.1,0.2-2.8c0.8-0.7,2.1-0.6,2.8,0.2c0.7,0.8,0.6,2.1-0.2,2.8
						C155.7,58.7,154.4,58.6,153.7,57.7z"/>
					<path class="st2" d="M158.6,63.5c-0.7-0.8-0.6-2.1,0.2-2.8c0.8-0.7,2.1-0.6,2.8,0.2c0.7,0.8,0.6,2.1-0.2,2.8
						C160.6,64.4,159.3,64.3,158.6,63.5z"/>
					<path class="st2" d="M163.5,69.3c-0.7-0.8-0.6-2.1,0.2-2.8c0.8-0.7,2.1-0.6,2.8,0.2c0.7,0.8,0.6,2.1-0.2,2.8
						C165.5,70.2,164.2,70.1,163.5,69.3z"/>
					<path class="st2" d="M168.4,75c-0.7-0.8-0.6-2.1,0.2-2.8c0.8-0.7,2.1-0.6,2.8,0.2c0.7,0.8,0.6,2.1-0.2,2.8
						C170.4,76,169.1,75.9,168.4,75z"/>
				</g>
				<g>
					<path class="st2" d="M139.5,50c-0.7-0.8-0.6-2.1,0.2-2.8c0.8-0.7,2.1-0.6,2.8,0.2c0.7,0.8,0.6,2.1-0.2,2.8
						C141.4,50.9,140.2,50.8,139.5,50z"/>
					<path class="st2" d="M144.4,55.7c-0.7-0.8-0.6-2.1,0.2-2.8c0.8-0.7,2.1-0.6,2.8,0.2c0.7,0.8,0.6,2.1-0.2,2.8
						C146.3,56.7,145.1,56.6,144.4,55.7z"/>
					<path class="st2" d="M149.3,61.5c-0.7-0.8-0.6-2.1,0.2-2.8c0.8-0.7,2.1-0.6,2.8,0.2c0.7,0.8,0.6,2.1-0.2,2.8
						C151.2,62.4,150,62.3,149.3,61.5z"/>
					<path class="st2" d="M154.2,67.3c-0.7-0.8-0.6-2.1,0.2-2.8c0.8-0.7,2.1-0.6,2.8,0.2c0.7,0.8,0.6,2.1-0.2,2.8
						C156.2,68.2,154.9,68.1,154.2,67.3z"/>
					<path class="st2" d="M159.1,73c-0.7-0.8-0.6-2.1,0.2-2.8c0.8-0.7,2.1-0.6,2.8,0.2c0.7,0.8,0.6,2.1-0.2,2.8
						C161.1,74,159.8,73.9,159.1,73z"/>
					<path class="st2" d="M164,78.8c-0.7-0.8-0.6-2.1,0.2-2.8c0.8-0.7,2.1-0.6,2.8,0.2c0.7,0.8,0.6,2.1-0.2,2.8
						C166,79.7,164.7,79.6,164,78.8z"/>
				</g>
			</g>
		</g>
		<path class="st0" d="M196.5,120c-0.6-0.7-1.1-1.5-1.6-2.3c-0.1-0.1-0.2-0.2-0.1-0.4c0.3-0.8,0.8-1.5,1.3-2.2
			c0.6-0.8,1.4-1.4,2.1-2c0.9-0.9,2-1.6,2.2-3c0.3,0.3,0.5,0.5,0.7,0.8c0.7,1,0.7,0.7-0.2,1.5c-0.7,0.7-1.6,1.2-2.2,2
			c1-0.7,2-1.4,3-2.2c0.4-0.3,0.7-0.3,1,0.1c0.6,0.7,1.2,1.4,1.8,2.2c0.7,0.9,0.7,1.4-0.3,2.1c-0.9,0.7-1.8,1.3-2.7,2
			c-1.2,0.9-2.5,1.7-3.6,2.7"/>
		<path class="st0" d="M191.3,97.8c-0.5,2.1-2.2,2.9-3.5,4.2c-0.8,0.7-1.2,1.7-1.8,2.5c-0.1,0.2-0.1,0.3,0,0.4
			c0.8,1,1.5,2.1,2.3,3.2c0.1-0.1,0.2-0.2,0.2-0.3c0.8-1.8,2.4-2.9,3.8-4.1c0.7-0.7,0.9-1.5,1.3-2.3c0.1-0.2,0-0.3-0.1-0.4
			C192.9,99.9,192.2,98.9,191.3,97.8z"/>
		<path class="st0" d="M188.3,93.6c-0.4,2-1.9,2.8-3.1,3.9c-0.9,0.8-1.5,1.8-2.1,2.7c-0.2,0.2-0.1,0.4,0.1,0.5
			c0.7,0.9,1.4,1.9,2.1,2.8c0.2,0.2,0.3,0.3,0.5,0c0.9-1.8,2.5-2.9,3.9-4.2c0.7-0.6,0.8-1.5,1.2-2.3c0.1-0.1,0-0.2-0.1-0.3
			C189.9,95.9,189.2,94.9,188.3,93.6z"/>
		<path class="st0" d="M197.3,106.1c-0.5,2-2.3,2.9-3.6,4.2c-0.7,0.7-1.1,1.6-1.7,2.4c-0.1,0.2,0,0.3,0.1,0.4c0.8,1,1.5,2.1,2.3,3.1
			c0.4-0.4,0.6-0.8,0.8-1.2c0.4-0.7,1-1.2,1.6-1.8c0.4-0.4,0.8-0.8,1.3-1.1c0.9-0.6,1.2-1.5,1.6-2.5c0.1-0.2,0-0.3-0.1-0.5
			c-0.2-0.4-0.8-0.6-0.5-1.1c-0.3,0-0.4-0.2-0.6-0.4C198.2,107.1,197.8,106.6,197.3,106.1z"/>
		<path class="st0" d="M194.3,101.8c-0.4,2.1-2.1,2.9-3.4,4.1c-0.8,0.7-1.3,1.7-1.9,2.5c-0.1,0.2,0,0.3,0.1,0.5
			c0.7,0.9,1.4,1.9,2.1,2.8c0.2,0.3,0.4,0.3,0.5,0c0.8-1.7,2.3-2.8,3.6-3.9c0.8-0.7,1.1-1.6,1.4-2.4c0.1-0.2,0-0.3-0.1-0.5
			C195.9,104,195.2,103,194.3,101.8z"/>
	</g>
	<path class="st0" d="M191.3,93.6"/>
	<path class="st0" d="M207.9,115.5L207.9,115.5L207.9,115.5C208,115.5,207.9,115.5,207.9,115.5z"/>
	<path class="st1" d="M16.7,47.6c0.4-1.4,1.1-2.5,2.2-3.4c1.5-1.1,3.6-1.4,5.4-1.6c2.2-0.2,4.3-0.2,6.4-0.5c0.7-0.1,1.3-0.2,2-0.4
		c4.6-1.2,6.5-3.3,6.2-8c-0.5-7.2-7.7-16.3-15.4-11.3c-1.2,0.8-2.3,1.8-3.2,3c-0.8,1-1.6,2.2-2.4,3.2c-0.7,1-1.5,1.9-2.6,2.5
		c-1.7,1-3.7,0.8-5.5,0.2c-0.4,1.5-0.5,3-0.4,4.6C9.8,40.8,12.5,45.1,16.7,47.6L16.7,47.6z M10.6,29c1.1,0.8,2.8,0.5,3.8-0.2
		c0.9-0.6,1.7-1.5,2.4-2.4c0.8-1.1,1.6-2.2,2.5-3.2c1-1.2,2.1-2.3,3.4-3.1C17.4,20.6,12.7,24.1,10.6,29L10.6,29z M37,42.2
		c-2.5,1.6-5.4,2.1-8.4,2.3c-0.8,0.1-1.6,0.1-2.3,0.1c-0.7,0-1.4,0.1-2.1,0.2C23,45,21.8,45.3,20.9,46c-0.9,0.7-1.4,1.7-1.6,2.8
		c1.9,0.7,4,1,6,0.8C30.2,49.2,34.6,46.4,37,42.2L37,42.2z"/>
	<path class="st0" d="M64.9,249.7c41.2,3.8,80.9-33,127.4-37.2c5.6-0.5,10.7-0.5,15.4-0.2c0,0,0,0,0-0.1c5.6,0.5,8.2,0.8,13.7,2.1
		l0-0.1l5.7,2c19.6,6.9,26.7,20.3,26.7,20.3s-6.9-7.5-28.9-9.4c-4.8-0.3-9.8-0.4-14.5-0.4c-1.3,0-2.6,0.1-3.9,0.1
		c-36.8,1.9-92.1,47.9-138.8,48C21,275,0.8,220.9,0.8,220.9S23.7,245.9,64.9,249.7z"/>
	<path class="st0" d="M228.2,174.7c-1.2-5.2-5.3-13.4-8.2-18.7c-2.2-4-4.2-8.6-5-10.6c-1.3,0.6-3,1.2-4.6,1.7
		c-1.9,0.6-3.9,1-5.4,1.2c-1.5,0.2-2.5,0.3-2.5,0.3s1-0.3,2.4-0.7c1.4-0.5,3.2-1.3,4.9-2.2c1.7-0.9,3.4-1.9,4.4-2.8
		c0.2-0.2,0.4-0.3,0.5-0.4c-0.7-1.7-2.3-4.3-2.7-5.1c-0.6-1.1-0.3-1.6-0.3-2.3c0-0.8-0.8-1.5-1.2-1.6c-0.4,0,0.1-1.4-0.3-2.1
		c-0.4-0.6-1.3-0.9-1.3-0.9s1.1-3.1,1.6-4.4c0.2-0.7,0.3-1.5,0.2-2.1c1.2-1,2.1-2.3,1.1-3.7c-0.5-0.6-0.9-1-1.4-1.3
		c0.8-0.6,1.4-1.4,1.6-2c0.2-1-0.1-1.8-0.7-2.4c-0.5-0.4-1-0.6-2.1-0.2c0.6-1.4,0.1-2.7-0.9-3.9c-0.6-0.7-1.7,0-1.7,0s0-1.8-0.8-3.1
		c-0.8-1.2-2.5-1.5-3.3-1.3c-0.6,0.2-1.1,0.5-1.4,0.7c-1.7-2.3-3.3-4.5-4.4-6c-0.3-0.4-0.6-0.8-0.9-1.3c0,0,0.2-3.6-0.3-4.9
		c-0.5-1.3-1.9-1.1-2.6-0.5c-0.3,0.2-0.4,0.5-0.5,0.7c-0.1-0.2-0.3-0.3-0.4-0.5c-0.7,2.2-2.4,4-4.9,4.6c0.3,0.4,0.6,0.7,0.8,1.1
		c0.5,0.7,1.1,1.4,1.6,2.2c0.9-1.1,2-1.9,3.1-2.9c0.7-0.6,0.8-1.5,1.2-2.3c0-0.1,0-0.1,0-0.1l0.5,0.7c-0.5,2.1-2.2,2.9-3.5,4.1
		c-0.5,0.5-0.9,1.1-1.3,1.7l-0.2,0.9c-0.1,0.1-0.2,0.2-0.3,0.3c0.3,0.4,0.5,0.8,0.8,1.1c0.5,0.7,1.2,1.7,1.9,2.7l-0.4-0.6
		c0.1-0.1,0.2-0.2,0.2-0.2c0.8-1.8,2.4-2.9,3.8-4.1c0.7-0.7,0.9-1.5,1.3-2.3c0-0.1,0-0.1,0-0.2l0.5,0.7c-0.4,2.1-2.1,2.9-3.4,4.1
		c-0.8,0.7-1.3,1.7-1.9,2.5c-0.1,0.1-0.1,0.2-0.1,0.3l-0.2-0.2c0,0.7-0.2,8-0.4,11.5c-0.2,3.6,3.5,13.4,3.5,13.4s0,0,0,0
		c1.1,0,2.8-0.3,4.4-0.6c3.6-0.7,7.3-1.5,7.3-1.5s-3.4,1.5-6.9,2.9c-1.7,0.7-3.4,1.5-5.1,1.7c-0.4,0.1-0.8,0.1-1.1,0.1
		c0.6,1.7,2.1,4.8,2.8,6.6c0.9,2.4,1.3,5.8,1.9,6.1c0.6,0.3,1.8,0.1,1.8,0.1s3,8.4,4.1,11.4c1.1,3,1.9,8.4,2.5,11.4
		c0.4,2.1,0.5,5.3,0.3,7.3c0.7,0.4,1.4,0.8,2.1,1.3c2.8,1.7,5.5,3.5,5.5,3.5s-3-1.1-6.1-2.1c-0.9-0.3-1.8-0.6-2.7-0.9
		c-1.1,0-3-0.7-5.6-1.4c-2.4-0.7-6.9-0.6-10.4-0.1c-1.5,1.2-3.5,1.8-5.6,1.2c-2.5,0.2-5-0.4-5-0.4s0.6-0.4,1-1
		c-1.9-0.5-4-0.6-5.9-0.8c-3.1-0.4-6-1.2-8.8-2.6c-2.6-0.8-7-1.1-9.2-0.8c-2.2,0.2-6.3,1.8-6.3,1.8s-0.9-0.9-1.3-1.3
		c-0.5-0.5-1.6-1.5-2.1-1.8c-0.4-0.3-2-1.4-2.2-2c-0.2-0.6,3.2-10.3,10.8-11c2.2-0.2,7.3-3.7,8.9-5.2c0,0,0,0,0,0
		c1.3-1.4,2.8-2.8,4.3-4.1c0.2-0.2,0.4-0.3,0.6-0.5c0.3-0.9,0.6-1.8,0.8-2.8c0.3-1.1,0.5-2.2,0.6-3.1c-0.2-2.3,0.6-9.1-0.5-15
		c-1.2-7-8.1-12.1-13.7-15.5c-1.7-1-3.8-1.6-5.9-1.9c0.3,0.2,0.7,0.5,1,0.8c0.5,0.4,1,0.8,1.4,1.3c0.4,0.5,0.9,0.9,1.4,1.5
		c0.4,0.5,0.8,1.1,1.3,1.6c0.8,1.2,1.6,2.4,2.2,3.7c0.7,1.3,1.2,2.7,1.7,4c0.5,1.4,0.9,2.8,1.3,4.2c0.3,1.4,0.6,2.8,0.9,4.1
		c0.2,1.3,0.4,2.7,0.5,3.9c0.1,1.2,0.2,2.4,0.3,3.5c0.1,1.1,0.1,2.1,0.1,3c0,0.9,0,1.6,0,2.3c0,1.3,0,2,0,2s-0.1-0.7-0.2-2
		c0-0.6-0.1-1.4-0.2-2.3c0-0.9-0.2-1.9-0.3-2.9c-0.2-1.1-0.3-2.2-0.5-3.4c-0.2-1.2-0.5-2.5-0.8-3.8c-0.3-1.3-0.7-2.6-1.1-4
		c-0.5-1.3-0.9-2.7-1.5-4c-0.6-1.3-1.2-2.6-1.9-3.7c-0.7-1.2-1.5-2.3-2.3-3.3c-0.4-0.5-0.9-1-1.3-1.4c-0.4-0.5-0.9-0.8-1.3-1.2
		c-0.4-0.4-0.9-0.7-1.3-1.1c-0.4-0.3-0.9-0.6-1.3-0.9c-0.9-0.5-1.7-0.9-2.4-1.2c-0.8-0.3-1.4-0.5-2-0.6c-0.2-0.1-0.4-0.1-0.6-0.1
		c-2,0.1-3.5,0.3-3.8,0.3c-0.7-0.1-6-6.1-9.6-8.6c1,1.6,1.8,3.4,2.6,5.4c1,2.3,2,4.7,3.1,7c1.2,2.3,2.6,4.5,4.1,6.4
		c0.8,1,1.5,1.8,2.3,2.6c0.8,0.8,1.6,1.5,2.3,2.1c1.5,1.3,2.9,2.2,3.8,2.8c1,0.6,1.5,0.9,1.5,0.9s-0.6-0.3-1.6-0.8
		c-1-0.5-2.4-1.4-4-2.5c-0.8-0.6-1.6-1.3-2.5-2c-0.8-0.8-1.7-1.6-2.6-2.5c-1.7-1.8-3.3-4-4.7-6.3c-1.4-2.3-2.6-4.6-3.7-6.8
		c-1.1-2.2-2.2-4.2-3.3-5.5c-0.5-0.6-1-1-1.5-1.3c-2.3,1.3-4.6,4.8-5.7,10c-1.4,6.4,4.8,13.2,4.8,13.2s-0.7,0.3-3.2,1.4
		c-2.5,1.1-0.7,4.5-0.7,4.5s-0.6,0.9-1.7,2c-1.1,1.1-1.1,5-1.1,5s-3.6,3.9-4.6,6.8c-1,2.8,4.4,6.6,5.9,8.3c1.5,1.6,1.7,3.2,1.7,3.2
		s-3.4-0.4-6.4-1.1c-3-0.7-7.4-6.2-8.5-7.1c-1.2-0.9-1.4-3.6-2.6-6c-1.2-2.5-5.2-8.7-9.2-11.8c-4-3.1-8.6-8.4-11.4-15.6
		c-2.9-7.2-4.8-11.5-5.6-17.2c-0.4-3.2-2.5-9.9-3.9-13c-1.2-2.7-5.7-15.3-7-18.9c-1.2,0.4-2.5,0.6-3.8,0.8c-3.8,0.5-7.6,0.1-7.6,0.1
		s3.8-0.4,7.3-1.6c1.7-0.6,3.4-1.4,4.3-2.1c0.1-0.1,0.1-0.1,0.2-0.2c-0.3-1.7-1.1-4.9-1.4-6.5c-0.3-2-0.9-6.8-1.3-7.8
		c-0.2-0.5-0.7-0.8-1.1-0.9c-0.2,0.2-0.4,0.4-0.6,0.5c-3.2-6.5-5-13.3-5.8-21.3c-0.7-6.5-3.2-17.9-5.4-21.9c-0.6-1-2-2.5-0.9-0.2
		c1.4,3.2,2.5,6.6,3,10.1c-1.6-5.3-3.9-8.7-6.4-13c-0.7-1.2-3.7-2.5-1.6,0.4C49.3,8.3,52,14,53.6,20c-2.2-5.1-5.8-10.5-9.3-15.2
		c-2.2-3-3.8,1-2.2,3.4c3.3,4.8,5.4,9.1,5.7,12.9c0.2,2.3-1.1,0.5-3.1-1.6c-1.6-1.7-3.8-3.4-5.3-4.6c-2.9-2.2-5.4,0.4-1.4,3.2
		c3.9,2.7,6.9,7.9,7.6,12.3c-0.8-2.5-2.3-4.7-4.2-6.5c-1.7,2.5-0.5,4.3,1.7,5.5c2.6,1.5,2.9,4,2.8,7c-0.2,6.3,3.4,7.1,4.8,12.1
		c0.3,1.2,0.8,2.7,1.3,4.4c-0.5,0-1-0.1-1.5-0.3c-0.2-0.1-0.4-0.1-0.6-0.2c0.1,2.8,2.4,14.1,2.7,14.6c0.3,0.6,1.4,0.8,1.4,0.8
		s0.6,2.9,0.5,6.3c0,3.4,2.1,16.1,2.6,19.9c0.4,3.8,1.1,9.3,1.7,11.8c0.5,2.3,1.7,4.5,2.9,6.5c1.1,1.9,4.4,8.2,7.7,14.8
		c2.7,5.6,13.6,23.3,16.8,27.2c3.2,3.9,2.6,8.2,2.1,11.1c-0.1,0.9-0.6,9.1-1.8,20.9c-0.2,2.3-0.9,5.1-1.3,7.6l3.7,0.9
		c-0.4,0.2-0.8,0.5-1.2,0.7c-1.1,0.6-2,1.2-2.9,1.6c-0.3,0.1-0.5,0.3-0.8,0.4c-0.2,0.5-0.4,1-0.5,1.6c-0.9,12.9-2.5,26-2.2,37.3
		c0.1,5.3,0.6,8.6,0.7,12.6c0,1.4,0,2.4,0,3.2c23-0.7,46.2-7,63.5-15c0-0.3-0.1-0.6,0-0.8c0.1-0.7,1.2-0.8,1.5-2.2
		c0.4-1.4,3.3-3.4,5.9-7.4c2.7-4.1,2.7-8.3,3.4-10.5c0-0.1,0.1-0.2,0.1-0.3c0.1-1,0.3-2.3,0.4-3.8l-11.4-3.9l13.9,3.3
		c3.2-4.2,7.9-9.6,9.4-10.3c2.2-1.1,4.7-0.3,4.7-0.3s0.2,0.4,0.7,1.1c2.9-0.4,5.9-0.1,8.9,0.4c-0.7-0.2-1.3-0.3-1.7-0.5
		c-0.6-0.2-0.9-0.3-0.9-0.3s0.3,0.1,0.9,0.2c0.6,0.1,1.4,0.3,2.5,0.4c2.1,0.3,4.8,0.4,7.6,0.5c2.8,0,5.5-0.1,7.6-0.2
		c0.5,0,1-0.1,1.4-0.1c4.3-0.6,15.7-2.5,20.7-3.5c5.9-1.2,9-3.2,10.8-5.5C233.4,191.3,229.5,179.9,228.2,174.7z M201.2,113.2
		c-0.7,0.7-1.5,1.2-2.1,2c-0.5,0.7-0.9,1.4-1.3,2.2l-2.7-4.3l-0.8-1.2c0.2,0.2,0.3,0.1,0.4-0.1c0.8-1.7,2.3-2.8,3.6-3.9
		c0.8-0.7,1.1-1.6,1.4-2.4c0-0.1,0-0.1,0-0.2l0.9,1.3c-0.1-0.1-0.3-0.3-0.4-0.4c-0.5,2-2.3,2.9-3.6,4.2c-0.7,0.7-1.1,1.6-1.7,2.4
		c-0.1,0.2,0,0.3,0.1,0.4c0.8,1,1.5,2.1,2.3,3.1c0.4-0.4,0.6-0.8,0.8-1.2c0.4-0.7,1-1.2,1.6-1.8c0.4-0.4,0.8-0.8,1.3-1.1
		c0.9-0.6,1.2-1.5,1.6-2.5c0-0.1,0-0.2,0-0.2l0.6,0.8C203.2,111.6,202,112.3,201.2,113.2z M149.6,125.4c-0.2-0.4-0.4-0.9-0.8-1.6
		c-0.6-1.3-1.6-2.9-2.7-4.4c-0.5-0.8-1.1-1.5-1.7-2.2c-0.6-0.7-1.1-1.3-1.6-1.8c-0.5-0.5-0.9-0.9-1.2-1.2c-0.3-0.3-0.5-0.4-0.5-0.4
		s0.2,0.1,0.6,0.3c0.4,0.2,0.9,0.5,1.5,0.9c1.2,0.9,2.6,2.3,3.7,3.9c0.5,0.8,1.1,1.6,1.5,2.5c0.4,0.8,0.7,1.6,1,2.3
		c0.2,0.7,0.4,1.3,0.5,1.7c0.1,0.4,0.1,0.7,0.1,0.7S149.8,125.8,149.6,125.4z"/>
</g>
<g>
	<polygon class="st3" points="129.4,308 116.1,325.3 109.7,309.9 102,310.7 102,310.7 96.7,311.3 101.1,314.5 95.3,338.8 
		104.4,337.9 107,326.7 110.5,334.3 117.6,333.6 125,324.9 122.3,336.1 131.4,335.2 138.1,307.1 	"/>
	<polygon class="st3" points="202.6,289.1 207.6,267.8 198.5,268.7 198.5,268.7 193.3,269.2 197.6,272.4 191.8,296.8 216.6,294.3 
		218.2,287.5 	"/>
	<path class="st3" d="M171.9,278l18.8-1.9l1.6-6.8l-24.7,2.5c0,0,0,0,0,0l-8.2,0.8l4.2,3.1L159,295c-0.6,2.6,1.7,4.9,4.6,4.6
		l22.1-2.2l1.6-6.8l-18.8,1.9l0.5-2.3l-2.5-1.8l5.8-0.6v0l13.8-1.4l1.3-5.7l-16.7,1.7l0.4-1.7l-3.2-2.4L171.9,278L171.9,278z"/>
	<path class="st3" d="M158.6,274.5c-1.2-1.1-2.8-1.5-5-1.3l-22,2.2l0,0l-5.3,0.5l4.4,3.2l-5.8,24.3l22.9-2.3c2.1-0.2,3.9-1,5.4-2.3
		c1.4-1.3,2.4-2.9,2.8-4.7l3.6-15.3C160.2,277,159.8,275.6,158.6,274.5z M150.4,280.6l-3.2,13.5c-0.1,0.3-0.3,0.5-0.7,0.6l-10.8,1.1
		l2.7-11.4l-3.6-2.7l4.4-0.4l0,0l10.8-1.1C150.4,280.2,150.5,280.3,150.4,280.6z"/>
	<path class="st3" d="M91.2,283.3c-0.3-1.1-1-2-2.1-2.6c-1.1-0.6-2.4-0.8-4-0.7L66.3,282l-4,0.4l-5.3,0.5l4.4,3.3l-5.8,24.3l9.1-0.9
		l1.9-8l14.7-1.5c2.1-0.2,3.9-1,5.4-2.4c1.5-1.4,2.4-2.9,2.8-4.7l1.7-7.2C91.4,284.9,91.4,284.1,91.2,283.3z M81.9,287.5l-1.4,5.8
		c-0.1,0.3-0.3,0.5-0.7,0.6L68.2,295l0.9-4l-3.3-2.4l4-0.4l0,0l11.7-1.2c0.2,0,0.4,0.1,0.5,0.3C81.9,287.4,81.9,287.5,81.9,287.5z"
		/>
	<polygon class="st3" points="115.7,277 106.7,277.9 106.7,277.9 101.3,278.5 104.6,280.9 86,307.4 95.8,306.4 106.7,290.5 
		108.9,287.3 108.9,287.3 111.8,297.8 103.3,298.7 111.6,304.8 113.8,304.6 123.2,303.7 	"/>
	<path class="st3" d="M151.3,312.4l18.8-1.9l1.6-6.8l-24.7,2.5c0,0,0,0,0,0l-8.2,0.8l4.2,3.1l-4.6,19.3c-0.6,2.6,1.7,4.9,4.6,4.6
		l22.1-2.2l1.6-6.8l-18.8,1.9l0.5-2.3l-2.5-1.8l5.8-0.6v0l13.8-1.4l1.3-5.7l-16.7,1.7l0.4-1.7l-3.2-2.4L151.3,312.4L151.3,312.4z"/>
</g>
<g>
	<polygon class="st0" points="127.4,306 114.1,323.3 107.7,307.9 100,308.7 100,308.7 94.7,309.3 99.1,312.5 93.3,336.8 
		102.4,335.9 105,324.7 108.5,332.3 115.6,331.6 123,322.9 120.3,334.1 129.4,333.2 136.1,305.1 	"/>
	<polygon class="st0" points="200.6,287.1 205.6,265.8 196.5,266.7 196.5,266.7 191.3,267.2 195.6,270.4 189.8,294.8 214.6,292.3 
		216.2,285.5 	"/>
	<path class="st0" d="M169.9,276l18.8-1.9l1.6-6.8l-24.7,2.5c0,0,0,0,0,0l-8.2,0.8l4.2,3.1L157,293c-0.6,2.6,1.7,4.9,4.6,4.6
		l22.1-2.2l1.6-6.8l-18.8,1.9l0.5-2.3l-2.5-1.8l5.8-0.6v0l13.8-1.4l1.3-5.7l-16.7,1.7l0.4-1.7l-3.2-2.4L169.9,276L169.9,276z"/>
	<path class="st0" d="M156.6,272.5c-1.2-1.1-2.8-1.5-5-1.3l-22,2.2v0l-5.3,0.5l4.4,3.2l-5.8,24.3l22.9-2.3c2.1-0.2,3.9-1,5.4-2.3
		c1.4-1.3,2.4-2.9,2.8-4.7l3.6-15.3C158.2,275,157.8,273.6,156.6,272.5z M148.4,278.6l-3.2,13.5c-0.1,0.3-0.3,0.5-0.7,0.6l-10.8,1.1
		l2.7-11.4l-3.6-2.7l4.4-0.4l0,0l10.8-1.1C148.4,278.2,148.5,278.3,148.4,278.6z"/>
	<path class="st0" d="M89.2,281.3c-0.3-1.1-1-2-2.1-2.6c-1.1-0.6-2.4-0.8-4-0.7L64.3,280l-4,0.4l-5.3,0.5l4.4,3.3l-5.8,24.3l9.1-0.9
		l1.9-8l14.7-1.5c2.1-0.2,3.9-1,5.4-2.4c1.5-1.4,2.4-2.9,2.8-4.7l1.7-7.2C89.4,282.9,89.4,282.1,89.2,281.3z M79.9,285.5l-1.4,5.8
		c-0.1,0.3-0.3,0.5-0.7,0.6L66.2,293l0.9-4l-3.3-2.4l4-0.4l0,0l11.7-1.2c0.2,0,0.4,0.1,0.5,0.3C79.9,285.4,79.9,285.5,79.9,285.5z"
		/>
	<polygon class="st0" points="113.7,275 104.7,275.9 104.7,275.9 99.3,276.5 102.6,278.9 84,305.4 93.8,304.4 104.7,288.5 
		106.9,285.3 106.9,285.3 109.8,295.8 101.3,296.7 109.6,302.8 111.8,302.6 121.2,301.7 	"/>
	<path class="st0" d="M149.3,310.4l18.8-1.9l1.6-6.8l-24.7,2.5c0,0,0,0,0,0l-8.2,0.8l4.2,3.1l-4.6,19.3c-0.6,2.6,1.7,4.9,4.6,4.6
		l22.1-2.2l1.6-6.8l-18.8,1.9l0.5-2.3l-2.5-1.8l5.8-0.6v0l13.8-1.4l1.3-5.7l-16.7,1.7l0.4-1.7l-3.2-2.4L149.3,310.4L149.3,310.4z"/>
</g>
</svg>
