<svg xmlns="http://www.w3.org/2000/svg" xmlns:xlink="http://www.w3.org/1999/xlink" width="314.276" height="292.271" viewBox="0 0 314.276 292.271">
  <defs>
    <clipPath id="clip-path">
      <path id="Path_7404" data-name="Path 7404" d="M141.609,16.638c-1,.1-2.143.2-3.675.377C75.323,24.368,36.137,76.546,31.484,82.933-7.762,136.8-10.26,223.75,41.1,265.433c22.6,18.344,48.91,22.02,80.074,27.23,19.316,3.23,81.793,12.678,136.448-20.1a118.859,118.859,0,0,0,21.1-15.389c48.617-45.016,48.5-127.158,10.268-180.194a137.154,137.154,0,0,0-28.735-29.288C223.678,20.157,180.912,15.92,157.6,15.921c-7.879,0-13.541.484-15.987.717" transform="translate(-2.262 -15.921)" fill="rgba(245,246,250,0.2)"/>
    </clipPath>
    <clipPath id="clip-path-2">
      <path id="Rectangle_5290" data-name="Rectangle 5290" d="M23.033,0H154.125a23.033,23.033,0,0,1,23.033,23.033V214.651a23.033,23.033,0,0,1-23.033,23.033H23.034A23.034,23.034,0,0,1,0,214.65V23.033A23.033,23.033,0,0,1,23.033,0Z" fill="none"/>
    </clipPath>
    <clipPath id="clip-path-3">
      <rect id="Rectangle_5291" data-name="Rectangle 5291" width="250.086" height="292.271" fill="none"/>
    </clipPath>
    <clipPath id="clip-path-4">
      <path id="Rectangle_5293" data-name="Rectangle 5293" d="M22.8,0H90.265a22.8,22.8,0,0,1,22.8,22.8v99.149a22.8,22.8,0,0,1-22.8,22.8H22.8A22.8,22.8,0,0,1,0,121.952V22.8A22.8,22.8,0,0,1,22.8,0Z" fill="none"/>
    </clipPath>
    <clipPath id="clip-path-5">
      <path id="Path_7492" data-name="Path 7492" d="M1315.02,625.141a5.3,5.3,0,1,0,5.3-5.3,5.3,5.3,0,0,0-5.3,5.3" transform="translate(-1315.02 -619.841)" fill="none"/>
    </clipPath>
    <clipPath id="clip-path-6">
      <path id="Path_7493" data-name="Path 7493" d="M1033.078,1478.211l-68.183,1.134c-5.19.086-9.412,4.121-9.412,9.013V1531.3c0,4.891,4.222,8.687,9.412,8.478l68.183-2.738a9.141,9.141,0,0,0,8.854-8.915v-41.5a8.527,8.527,0,0,0-8.7-8.414h-.156" transform="translate(-955.483 -1478.21)" fill="none"/>
    </clipPath>
    <clipPath id="clip-path-7">
      <path id="Path_7494" data-name="Path 7494" d="M1085.207,1052.575c-14.434,0-26.3,11.2-26.3,24.974v9.647a3.765,3.765,0,0,0,3.942,3.653,3.889,3.889,0,0,0,3.93-3.759v-9.617c0-9.648,8.3-17.521,18.425-17.551l22.212-.064c9.872-.028,17.847,7.619,17.847,17.047v9.4a3.616,3.616,0,0,0,3.742,3.56,3.735,3.735,0,0,0,3.731-3.66v-9.37c0-13.375-11.3-24.257-25.319-24.257Z" transform="translate(-1058.909 -1052.575)" fill="none"/>
    </clipPath>
    <clipPath id="clip-path-8">
      <path id="Path_7495" data-name="Path 7495" d="M1312.234,1625.638a9,9,0,0,0-8.423,8.173,8.078,8.078,0,0,0,4.414,7.648,3,3,0,0,1,1.538,3.208l-1.947,10.925a2.21,2.21,0,0,0,2.342,2.561l5-.179a2.385,2.385,0,0,0,2.328-2.718l-1.946-10.823a3.209,3.209,0,0,1,1.623-3.281,8.611,8.611,0,0,0,4.3-7.338,8.355,8.355,0,0,0-8.586-8.2q-.32,0-.644.022" transform="translate(-1303.798 -1625.616)" fill="#dcb1b1"/>
    </clipPath>
    <clipPath id="clip-path-11">
      <rect id="Rectangle_5322" data-name="Rectangle 5322" width="67.878" height="44.38" fill="none"/>
    </clipPath>
    <clipPath id="clip-path-12">
      <rect id="Rectangle_5323" data-name="Rectangle 5323" width="69.289" height="48.227" fill="none"/>
    </clipPath>
    <clipPath id="clip-path-13">
      <rect id="Rectangle_5324" data-name="Rectangle 5324" width="34.892" height="34.428" fill="none"/>
    </clipPath>
    <clipPath id="clip-path-14">
      <rect id="Rectangle_5325" data-name="Rectangle 5325" width="42.579" height="14.749" fill="none"/>
    </clipPath>
  </defs>
  <g id="Group_18960" data-name="Group 18960" transform="translate(-866.999 -158.5)">
    <g id="Group_18430" data-name="Group 18430" transform="translate(895.125 223.989)">
      <g id="Group_18429" data-name="Group 18429" transform="translate(-28.126 -64.946)" clip-path="url(#clip-path)">
        <path id="Path_7467" data-name="Path 7467" d="M0,0,444.407,23.681l23.647,440.8L23.647,440.8Z" transform="matrix(0.729, -0.685, 0.685, 0.729, -173.3, 135.675)" fill="rgba(245,246,250,0.2)"/>
      </g>
    </g>
    <g id="Group_18595" data-name="Group 18595" transform="translate(889 158.5)">
      <g id="Group_18596" data-name="Group 18596" transform="translate(0 0)">
        <g id="Group_18519" data-name="Group 18519" transform="translate(56.234 52.682)">
          <g id="Group_18518" data-name="Group 18518" clip-path="url(#clip-path-2)">
            <rect id="Rectangle_5289" data-name="Rectangle 5289" width="264.2" height="214.771" transform="translate(-39.583 230.899) rotate(-80.272)" fill="#59c6ce"/>
          </g>
        </g>
        <g id="Group_18521" data-name="Group 18521" transform="translate(0 0)">
          <g id="Group_18520" data-name="Group 18520" clip-path="url(#clip-path-3)">
            <path id="Path_7491" data-name="Path 7491" d="M861.9,1005.752H744.681a8.045,8.045,0,0,1-8.045-8.045V843.13a8.045,8.045,0,0,1,8.045-8.045H861.9a8.045,8.045,0,0,1,8.045,8.045V997.706a8.045,8.045,0,0,1-8.045,8.045" transform="translate(-658.666 -746.694)" fill="#b1f6fc"/>
          </g>
        </g>
        <g id="Group_18523" data-name="Group 18523" transform="translate(88.144 102.43)">
          <g id="Group_18522" data-name="Group 18522" clip-path="url(#clip-path-4)">
            <rect id="Rectangle_5292" data-name="Rectangle 5292" width="113.068" height="144.754" transform="translate(0)" fill="#59c6ce"/>
          </g>
        </g>
        <g id="Group_18525" data-name="Group 18525" transform="translate(139.191 65.608)">
          <g id="Group_18524" data-name="Group 18524" clip-path="url(#clip-path-5)">
            <rect id="Rectangle_5294" data-name="Rectangle 5294" width="13.94" height="13.94" transform="translate(-3.867 8.924) rotate(-66.571)" fill="#3e3f97"/>
          </g>
        </g>
        <g id="Group_18527" data-name="Group 18527" transform="translate(101.135 156.463)">
          <g id="Group_18526" data-name="Group 18526" clip-path="url(#clip-path-6)">
            <rect id="Rectangle_5295" data-name="Rectangle 5295" width="73.486" height="94.385" transform="matrix(0.143, -0.99, 0.99, 0.143, -8.731, 60.514)" fill="#3e3f97"/>
          </g>
        </g>
        <g id="Group_18529" data-name="Group 18529" transform="translate(112.082 111.411)">
          <g id="Group_18528" data-name="Group 18528" clip-path="url(#clip-path-7)">
            <rect id="Rectangle_5296" data-name="Rectangle 5296" width="48.456" height="78.543" transform="matrix(0.143, -0.99, 0.99, 0.143, -5.414, 37.525)" fill="#3e3f97"/>
          </g>
        </g>
        <g id="Group_18531" data-name="Group 18531" transform="translate(138.003 172.066)">
          <g id="Group_18530" data-name="Group 18530" clip-path="url(#clip-path-8)">
            <rect id="Rectangle_5297" data-name="Rectangle 5297" width="37.13" height="30.582" transform="matrix(0.449, -0.893, 0.893, 0.449, -13.256, 26.009)" fill="#282861"/>
          </g>
        </g>
        <g id="Group_18593" data-name="Group 18593" transform="translate(0 0)">
          <g id="Group_18592" data-name="Group 18592" clip-path="url(#clip-path-3)">
            <g id="Group_18582" data-name="Group 18582" transform="translate(144.721 0)" opacity="0.3">
              <g id="Group_18581" data-name="Group 18581">
                <g id="Group_18580" data-name="Group 18580" clip-path="url(#clip-path-11)">
                  <path id="Path_7520" data-name="Path 7520" d="M1485.726,44.379a1.042,1.042,0,0,1-1-1.084c.046-1.117.044-2.253-.006-3.376a1.042,1.042,0,0,1,.975-1.086h.02a1.042,1.042,0,0,1,1.087,1c.052,1.182.055,2.378.006,3.554a1.042,1.042,0,0,1-.974,1,1.022,1.022,0,0,1-.11,0M1484.1,34.47c-.2-1.105-.454-2.212-.748-3.291a1.042,1.042,0,1,1,2.011-.548c.31,1.135.574,2.3.787,3.463a1.042,1.042,0,0,1-.838,1.213,1.065,1.065,0,0,1-.123.015,1.042,1.042,0,0,1-1.09-.852M1481.55,26c-.442-1.03-.935-2.052-1.464-3.041a1.042,1.042,0,0,1,1.838-.984c.557,1.041,1.075,2.118,1.541,3.2a1.042,1.042,0,1,1-1.915.822m-4.383-7.683c-.662-.906-1.371-1.793-2.107-2.638a1.042,1.042,0,0,1,1.572-1.369c.775.89,1.521,1.824,2.218,2.777a1.042,1.042,0,0,1-1.683,1.23m-5.985-6.515c-.845-.734-1.732-1.443-2.639-2.106a1.042,1.042,0,1,1,1.23-1.682c.954.7,1.888,1.443,2.777,2.216a1.042,1.042,0,1,1-1.368,1.572M1463.9,6.778c-.987-.53-2.01-1.025-3.039-1.47a1.042,1.042,0,0,1,.827-1.913c1.083.468,2.159.989,3.2,1.547a1.042,1.042,0,0,1-.986,1.836m-38.7-.485a1.042,1.042,0,0,1,.429-1.41c1.04-.555,2.119-1.071,3.206-1.536a1.042,1.042,0,0,1,.819,1.917c-1.032.441-2.057.932-3.044,1.458a1.041,1.041,0,0,1-1.41-.429m30.489-2.8c-1.08-.3-2.186-.551-3.287-.755a1.042,1.042,0,0,1,.379-2.05c1.16.214,2.325.482,3.462.8a1.042,1.042,0,1,1-.553,2.009m-22.133-.757a1.042,1.042,0,0,1,.734-1.278c1.138-.308,2.3-.57,3.467-.781a1.042,1.042,0,1,1,.372,2.051c-1.1.2-2.213.45-3.294.742a1.059,1.059,0,0,1-.207.034,1.042,1.042,0,0,1-1.071-.768m13.4-.614c-1.119-.048-2.254-.049-3.375,0a1.042,1.042,0,0,1-.11-2.081h.022c1.18-.05,2.375-.05,3.553,0a1.042,1.042,0,0,1,.023,2.081c-.037,0-.074,0-.112,0" transform="translate(-1418.966 0.001)" fill="#91b3fa"/>
                  <path id="Path_7521" data-name="Path 7521" d="M1368.383,76.457a1.037,1.037,0,0,0,.581-.224c.421-.334.856-.665,1.292-.984a1.042,1.042,0,1,0-1.229-1.683c-.459.335-.917.683-1.359,1.035a1.042,1.042,0,0,0,.715,1.856" transform="translate(-1367.274 -65.6)" fill="#91b3fa"/>
                </g>
              </g>
            </g>
            <g id="Group_18585" data-name="Group 18585" transform="translate(129.38 35.023)" opacity="0.3">
              <g id="Group_18584" data-name="Group 18584">
                <g id="Group_18583" data-name="Group 18583" clip-path="url(#clip-path-12)">
                  <path id="Path_7522" data-name="Path 7522" d="M1224.848,334.623a1.043,1.043,0,0,0,.971-.941c.051-.535.114-1.078.188-1.613a1.042,1.042,0,0,0-2.065-.284c-.077.564-.144,1.135-.2,1.7a1.041,1.041,0,0,0,1.1,1.139" transform="translate(-1223.589 -330.885)" fill="#91b3fa"/>
                  <path id="Path_7523" data-name="Path 7523" d="M1264.468,439.866a1.042,1.042,0,1,1-.03-2.084c1.1-.016,2.208-.079,3.318-.187a1.042,1.042,0,0,1,.2,2.075q-.721.07-1.439.116c-.683.043-1.373.07-2.05.08m7.838-1.9a1.042,1.042,0,0,1,.774-1.254c1.075-.255,2.151-.558,3.2-.9a1.042,1.042,0,1,1,.649,1.98c-1.1.361-2.235.68-3.366.948a1.055,1.055,0,0,1-.176.026,1.043,1.043,0,0,1-1.079-.8m-13.508,1.594c-1.151-.142-2.311-.335-3.449-.574a1.042,1.042,0,1,1,.429-2.04c1.08.228,2.182.411,3.275.546a1.042,1.042,0,0,1-.06,2.074,1.056,1.056,0,0,1-.195-.006m22-4.383a1.042,1.042,0,0,1,.479-1.394c.991-.484,1.974-1.016,2.92-1.582a1.042,1.042,0,0,1,1.069,1.789c-1,.6-2.031,1.156-3.075,1.666a1.041,1.041,0,0,1-1.394-.479m-30.908,2.262c-1.091-.391-2.18-.835-3.237-1.318a1.042,1.042,0,1,1,.866-1.9c1,.459,2.039.881,3.075,1.252a1.042,1.042,0,1,1-.7,1.962m-8.228-4.024c-.981-.622-1.947-1.292-2.872-1.993a1.042,1.042,0,1,1,1.259-1.661c.878.665,1.8,1.3,2.729,1.894a1.042,1.042,0,0,1-1.115,1.76m-7.156-5.721c-.823-.821-1.62-1.686-2.37-2.571a1.042,1.042,0,0,1,1.59-1.347c.712.841,1.469,1.662,2.252,2.443a1.042,1.042,0,0,1-1.472,1.475m-5.737-7.146c-.623-.981-1.212-2-1.75-3.029a1.042,1.042,0,1,1,1.847-.965c.51.977,1.069,1.944,1.661,2.876a1.042,1.042,0,0,1-1.759,1.118m-4.029-8.236c-.391-1.092-.74-2.214-1.038-3.338a1.042,1.042,0,1,1,2.014-.535c.283,1.067.615,2.133.986,3.17a1.042,1.042,0,1,1-1.962.7m-2.12-8.91c-.106-.848-.187-1.709-.241-2.561q-.029-.462-.048-.923a1.031,1.031,0,0,1,1-1.084,1.042,1.042,0,0,1,1.085,1q.018.437.046.877c.051.809.128,1.628.229,2.434a1.042,1.042,0,0,1-.9,1.163l-.064.006a1.042,1.042,0,0,1-1.1-.911" transform="translate(-1222.33 -391.639)" fill="#91b3fa"/>
                  <path id="Path_7524" data-name="Path 7524" d="M1846.291,675.726a1.037,1.037,0,0,0,.585-.227c.44-.353.881-.722,1.31-1.1a1.042,1.042,0,1,0-1.37-1.571c-.408.356-.827.706-1.245,1.042a1.042,1.042,0,0,0,.719,1.853" transform="translate(-1779.255 -636.408)" fill="#91b3fa"/>
                </g>
              </g>
            </g>
            <path id="Path_7525" data-name="Path 7525" d="M1377.139,140.391a.488.488,0,0,0,0-.566l-3.433-4.833a25.821,25.821,0,0,0,1.9-8.148l5.209-2.821a.488.488,0,0,0,.249-.508L1379.9,116.5a.487.487,0,0,0-.4-.4l-5.841-.989a25.829,25.829,0,0,0-4.425-7.1l1.689-5.682a.487.487,0,0,0-.183-.535l-5.783-4.138a.487.487,0,0,0-.565,0l-4.833,3.433a25.82,25.82,0,0,0-8.148-1.9l-2.821-5.209a.487.487,0,0,0-.508-.249l-7.015,1.163a.487.487,0,0,0-.4.4l-.989,5.841a25.821,25.821,0,0,0-7.1,4.425l-5.682-1.69a.487.487,0,0,0-.535.183l-4.138,5.783a.487.487,0,0,0,0,.565l3.433,4.833a25.82,25.82,0,0,0-1.9,8.148l-5.209,2.821a.486.486,0,0,0-.248.508l1.163,7.015a.487.487,0,0,0,.4.4l5.841.989a25.824,25.824,0,0,0,4.426,7.1l-1.689,5.682a.487.487,0,0,0,.183.535l5.783,4.138a.487.487,0,0,0,.565,0l4.833-3.433a25.82,25.82,0,0,0,8.148,1.9l2.822,5.209a.487.487,0,0,0,.508.248l7.015-1.163a.487.487,0,0,0,.4-.4l.989-5.841a25.821,25.821,0,0,0,7.1-4.425l5.682,1.689a.487.487,0,0,0,.535-.183Z" transform="translate(-1178.755 -83.807)" fill="#c5d8ff"/>
            <path id="Path_7526" data-name="Path 7526" d="M1553.861,337.008a7.143,7.143,0,1,1,1.05.01,7.156,7.156,0,0,1-1.05-.01m-2.949-11.305a5.48,5.48,0,1,0,3.995-1.279,5.582,5.582,0,0,0-.813-.008,5.441,5.441,0,0,0-3.182,1.287" transform="translate(-1383.528 -288.577)" fill="#f5f6fa"/>
            <path id="Path_7527" data-name="Path 7527" d="M1466.326,258.411a17.9,17.9,0,0,0,1.794-.205q.282-.047.563-.1a17.688,17.688,0,0,0,2.708-.767l.036-.013.1-.039.2-.077a.417.417,0,1,0-.307-.775,16.76,16.76,0,0,1-18.643-4.4,16.636,16.636,0,0,1-4.047-8.425,16.938,16.938,0,0,1-.2-1.712,16.742,16.742,0,1,1,32.292,5.1.417.417,0,0,0,.776.306,17.576,17.576,0,1,0-33.9-5.357,17.988,17.988,0,0,0,.206,1.8,17.578,17.578,0,0,0,18.419,14.668" transform="translate(-1294.436 -199.658)" fill="#f5f6fa"/>
            <g id="Group_18588" data-name="Group 18588" transform="translate(215.194 35.107)" opacity="0.3">
              <g id="Group_18587" data-name="Group 18587">
                <g id="Group_18586" data-name="Group 18586" clip-path="url(#clip-path-13)">
                  <path id="Path_7528" data-name="Path 7528" d="M2344.983,632.718a.643.643,0,0,0,.586-.5c.12-.533.227-1.077.315-1.617a.644.644,0,1,0-1.271-.208c-.084.514-.185,1.033-.3,1.541a.644.644,0,0,0,.486.77.653.653,0,0,0,.183.014" transform="translate(-2311.355 -598.292)" fill="#91b3fa"/>
                  <path id="Path_7529" data-name="Path 7529" d="M2067.275,361.2a.644.644,0,0,1-.618-.668,26.854,26.854,0,0,0-.034-2.7q-.019-.283-.042-.568a.644.644,0,0,1,.587-.7.666.666,0,0,1,.7.588q.025.3.044.594a27.939,27.939,0,0,1,.035,2.831.643.643,0,0,1-.6.618c-.022,0-.044,0-.066,0m-1.168-7.171a26.74,26.74,0,0,0-.865-3.152.644.644,0,0,1,1.218-.416,27.878,27.878,0,0,1,.906,3.3.644.644,0,0,1-.5.762.676.676,0,0,1-.092.012.643.643,0,0,1-.67-.511M2064,347.853a26.479,26.479,0,0,0-1.613-2.843.644.644,0,0,1,1.078-.7,27.907,27.907,0,0,1,1.691,2.982.644.644,0,0,1-.3.861.651.651,0,0,1-.241.064.644.644,0,0,1-.62-.36m-3.565-5.465a26.569,26.569,0,0,0-2.259-2.361.644.644,0,0,1,.873-.946,27.905,27.905,0,0,1,2.369,2.477.644.644,0,0,1-.983.831m-4.79-4.43a26.855,26.855,0,0,0-2.765-1.742.644.644,0,1,1,.618-1.129,28.19,28.19,0,0,1,2.9,1.826.644.644,0,0,1-.751,1.045m-5.721-3.132a26.4,26.4,0,0,0-3.1-1.014.644.644,0,0,1,.323-1.246,27.674,27.674,0,0,1,3.255,1.064.644.644,0,0,1-.475,1.2m-6.31-1.637a26.443,26.443,0,0,0-3.26-.221.644.644,0,0,1,.008-1.288,27.906,27.906,0,0,1,3.419.233.644.644,0,0,1-.167,1.277m-10.519.065a.643.643,0,0,1,.473-.778,28,28,0,0,1,2.926-.549c.149-.021.3-.039.448-.057a.644.644,0,0,1,.148,1.279c-.14.016-.281.034-.423.053a26.664,26.664,0,0,0-2.794.524.643.643,0,0,1-.778-.473" transform="translate(-2033.071 -331.679)" fill="#91b3fa"/>
                </g>
              </g>
            </g>
            <g id="Group_18591" data-name="Group 18591" transform="translate(198.185 75.962)" opacity="0.3">
              <g id="Group_18590" data-name="Group 18590">
                <g id="Group_18589" data-name="Group 18589" clip-path="url(#clip-path-14)">
                  <path id="Path_7530" data-name="Path 7530" d="M1897.853,732.374a28.044,28.044,0,0,1-3.369-.034.644.644,0,1,1,.091-1.284,26.623,26.623,0,0,0,3.214.032.644.644,0,0,1,.073,1.285h-.009m2.607-.9a.643.643,0,0,1,.525-.743,26.885,26.885,0,0,0,3.131-.735.644.644,0,0,1,.369,1.234,28.118,28.118,0,0,1-3.281.769.624.624,0,0,1-.069.008.644.644,0,0,1-.674-.534m-9.319.42a27.934,27.934,0,0,1-3.262-.847.644.644,0,0,1,.4-1.224,26.691,26.691,0,0,0,3.112.809.643.643,0,1,1-.248,1.263m15.662-2.158a.644.644,0,0,1,.331-.848,26.52,26.52,0,0,0,2.86-1.468.644.644,0,0,1,.657,1.107,27.582,27.582,0,0,1-3,1.54.643.643,0,0,1-.848-.331m-22.057.074a27.978,27.978,0,0,1-2.962-1.607.644.644,0,1,1,.681-1.093,26.483,26.483,0,0,0,2.825,1.533.644.644,0,0,1-.545,1.167m-5.709-3.558a28.191,28.191,0,0,1-2.493-2.269.644.644,0,0,1,.922-.9,26.883,26.883,0,0,0,2.378,2.164.644.644,0,0,1-.808,1m-4.693-4.823a27.771,27.771,0,0,1-1.876-2.8.644.644,0,0,1,1.111-.65,26.319,26.319,0,0,0,1.789,2.672.644.644,0,0,1-.122.9.636.636,0,0,1-.348.13.643.643,0,0,1-.553-.252" transform="translate(-1872.38 -717.66)" fill="#91b3fa"/>
                  <path id="Path_7531" data-name="Path 7531" d="M2251.433,784.066a.639.639,0,0,0,.352-.133c.436-.337.864-.688,1.272-1.044a.644.644,0,1,0-.846-.97c-.389.34-.8.675-1.214,1a.644.644,0,0,0,.436,1.151" transform="translate(-2210.699 -774.975)" fill="#91b3fa"/>
                </g>
              </g>
            </g>
            <path id="Path_7532" data-name="Path 7532" d="M1940.707,425.131a.326.326,0,0,0,0-.378l-2.3-3.234a17.279,17.279,0,0,0,1.269-5.452l3.486-1.888a.325.325,0,0,0,.166-.34l-.778-4.694a.326.326,0,0,0-.267-.268l-3.909-.662a17.264,17.264,0,0,0-2.961-4.751l1.131-3.8a.326.326,0,0,0-.123-.358l-3.87-2.769a.326.326,0,0,0-.378,0l-3.234,2.3a17.279,17.279,0,0,0-5.453-1.269l-1.888-3.486a.326.326,0,0,0-.34-.166l-4.694.778a.326.326,0,0,0-.268.267l-.662,3.909a17.28,17.28,0,0,0-4.751,2.961l-3.8-1.131a.326.326,0,0,0-.358.123l-2.769,3.87a.326.326,0,0,0,0,.378l2.3,3.234a17.279,17.279,0,0,0-1.269,5.452l-3.486,1.888a.326.326,0,0,0-.166.34l.778,4.694a.326.326,0,0,0,.267.268l3.909.662a17.265,17.265,0,0,0,2.961,4.751l-1.13,3.8a.326.326,0,0,0,.122.358l3.87,2.768a.326.326,0,0,0,.379,0l3.234-2.3a17.272,17.272,0,0,0,5.453,1.269l1.888,3.486a.326.326,0,0,0,.34.166l4.694-.779a.326.326,0,0,0,.268-.267l.662-3.909a17.282,17.282,0,0,0,4.751-2.961l3.8,1.13a.326.326,0,0,0,.358-.123Z" transform="translate(-1700.08 -352.212)" fill="#91b3fa"/>
            <path id="Path_7533" data-name="Path 7533" d="M2058.228,556.064a4.85,4.85,0,1,1,.722.007,4.985,4.985,0,0,1-.722-.007m-3.166-5.149a3.581,3.581,0,1,0,3.866-3.272,3.651,3.651,0,0,0-.526-.005,3.587,3.587,0,0,0-3.34,3.277" transform="translate(-1836.378 -488.515)" fill="#bdd0fb"/>
            <path id="Path_7534" data-name="Path 7534" d="M1997.343,501.363a12.323,12.323,0,0,0,1.225-.14,12.183,12.183,0,0,0,2.384-.648l.1-.041a.644.644,0,0,0,.406-.639.654.654,0,0,0-.044-.2.644.644,0,0,0-.835-.361,10.872,10.872,0,0,1-2.224.616h0l-.125.02a10.731,10.731,0,0,1-5.284-.5,10.9,10.9,0,0,1-2.59-1.344l-.02-.014-.06-.043a10.767,10.767,0,0,1-4.385-7.041,10.983,10.983,0,0,1-.127-1.108,10.838,10.838,0,1,1,20.906,3.3.635.635,0,0,0-.044.277.644.644,0,0,0,1.241.2,12.126,12.126,0,1,0-23.388-3.7,12.44,12.44,0,0,0,.142,1.239,12.142,12.142,0,0,0,12.72,10.118" transform="translate(-1774.408 -426.631)" fill="#bdd0fb"/>
          </g>
        </g>
      </g>
    </g>
  </g>
</svg>
