<svg xmlns="http://www.w3.org/2000/svg" xmlns:xlink="http://www.w3.org/1999/xlink" width="627.501" height="234.899" viewBox="0 0 627.501 234.899">
  <defs>
    <clipPath id="clip-path">
      <rect id="Rectangle_5288" data-name="Rectangle 5288" width="627.501" height="234.899" fill="none"/>
    </clipPath>
  </defs>
  <g id="Group_18515" data-name="Group 18515" opacity="0.2">
    <g id="Group_18514" data-name="Group 18514" clip-path="url(#clip-path)">
      <path id="Path_7470" data-name="Path 7470" d="M662.476,40.129h0a7.481,7.481,0,1,1,7.481-7.481,7.5,7.5,0,0,1-7.481,7.481" transform="translate(-42.457 -1.631)" fill="#fff"/>
      <path id="Path_7471" data-name="Path 7471" d="M243.426,121.075l2.561-4.328,2.262,4.492,4.327,2.561-4.491,2.262-2.561,4.328-2.262-4.491-4.328-2.561Z" transform="translate(-15.488 -7.568)" fill="#fffcee"/>
      <path id="Path_7472" data-name="Path 7472" d="M132.426,53.075l2.561-4.328,2.262,4.492,4.327,2.561-4.491,2.262-2.561,4.328L132.262,57.9l-4.328-2.561Z" transform="translate(-8.293 -3.16)" fill="#fffcee"/>
      <path id="Path_7473" data-name="Path 7473" d="M4.491,20.841l2.561-4.328L9.315,21l4.327,2.561L9.151,25.827,6.59,30.155,4.328,25.664,0,23.1Z" transform="translate(0 -1.07)" fill="#fffcee"/>
      <path id="Path_7474" data-name="Path 7474" d="M55.825,208.841l2.561-4.328L60.648,209l4.327,2.561-4.491,2.262-2.561,4.328-2.262-4.491L51.333,211.1Z" transform="translate(-18.163 0.387)" fill="#fffcee"/>
      <path id="Path_7475" data-name="Path 7475" d="M530.815,37.949l3.081-5.207,2.721,5.4,5.207,3.081-5.4,2.721-3.081,5.207-2.721-5.4-5.207-3.081Z" transform="translate(-34.057 -2.122)" fill="#fff"/>
      <path id="Path_7476" data-name="Path 7476" d="M642.626,129.223l3.081-5.207,2.721,5.4,5.207,3.081-5.4,2.721-3.081,5.207-2.721-5.4-5.207-3.081Z" transform="translate(-41.305 -8.039)" fill="#fff"/>
      <path id="Path_7477" data-name="Path 7477" d="M20.428,135.446l3.081-5.207,2.721,5.4,5.207,3.081-5.4,2.721-3.081,5.207-2.721-5.4-5.207-3.081Z" transform="translate(-0.974 -8.442)" fill="#fffcee"/>
      <path id="Path_7478" data-name="Path 7478" d="M643.162,179.1l5.314-8.981,4.695,9.32,8.981,5.314-9.32,4.695-5.314,8.98-4.695-9.319-8.98-5.315Z" transform="translate(-41.086 -11.027)" fill="#fff"/>
      <path id="Path_7479" data-name="Path 7479" d="M89.286,103.48l5.2-8.783,4.591,9.115,8.783,5.2L98.743,113.6l-5.2,8.782-4.592-9.114-8.782-5.2Z" transform="translate(-5.197 -6.138)" fill="#fff"/>
      <path id="Path_7480" data-name="Path 7480" d="M232.141,22.983h0a2.338,2.338,0,1,1,2.338-2.338,2.345,2.345,0,0,1-2.338,2.338" transform="translate(-14.896 -1.187)" fill="#fffcee"/>
      <path id="Path_7481" data-name="Path 7481" d="M171.673,6.048h0a1.87,1.87,0,1,1,1.87-1.87,1.876,1.876,0,0,1-1.87,1.87" transform="translate(-11.007 -0.15)" fill="#fffcee"/>
      <path id="Path_7482" data-name="Path 7482" d="M244.206,157.113h0a1.4,1.4,0,1,1,1.4-1.4,1.407,1.407,0,0,1-1.4,1.4" transform="translate(-15.739 -10.002)" fill="#fffcee"/>
      <path id="Path_7483" data-name="Path 7483" d="M552.421,24.613h0a1.4,1.4,0,1,1,1.4-1.4,1.407,1.407,0,0,1-1.4,1.4" transform="translate(-35.717 -1.414)" fill="#fff"/>
      <path id="Path_7484" data-name="Path 7484" d="M99.307,195.483h0a2.338,2.338,0,1,1,2.338-2.338,2.345,2.345,0,0,1-2.338,2.338" transform="translate(-6.286 -12.368)" fill="#fffcee"/>
      <path id="Path_7485" data-name="Path 7485" d="M534.865,130.241h0a1.87,1.87,0,1,1,1.87-1.87,1.876,1.876,0,0,1-1.87,1.87" transform="translate(-34.549 -8.2)" fill="#fff"/>
      <path id="Path_7486" data-name="Path 7486" d="M607.532,3.741h0a1.87,1.87,0,1,1,1.87-1.87,1.876,1.876,0,0,1-1.87,1.87" transform="translate(-39.259)" fill="#fff"/>
      <path id="Path_7487" data-name="Path 7487" d="M33.339,54.882h0a1.87,1.87,0,1,1,1.87-1.87,1.876,1.876,0,0,1-1.87,1.87" transform="translate(-2.04 -3.315)" fill="#fffcee"/>
      <path id="Path_7488" data-name="Path 7488" d="M373.865,109.241h0a1.87,1.87,0,1,1,1.87-1.87,1.876,1.876,0,0,1-1.87,1.87" transform="translate(-24.113 -6.839)" fill="#fff"/>
      <path id="Path_7489" data-name="Path 7489" d="M448.8,39.111h0a2.806,2.806,0,1,1,2.806-2.806,2.814,2.814,0,0,1-2.806,2.806" transform="translate(-28.909 -2.171)" fill="#fff"/>
      <path id="Path_7490" data-name="Path 7490" d="M119.531,150.838a4.364,4.364,0,1,1-4.364-4.364,4.365,4.365,0,0,1,4.364,4.364" transform="translate(-7.182 -9.494)" fill="#fffcee"/>
    </g>
  </g>
</svg>
