<?xml version="1.0" encoding="UTF-8"?>
<svg id="Layer_1" data-name="Layer 1" xmlns="http://www.w3.org/2000/svg" viewBox="0 0 354.81 354.81">
  <defs>
    <style>
      .cls-1 {
        fill: #91be49;
        fill-rule: evenodd;
      }

      .cls-1, .cls-2 {
        stroke-width: 0px;
      }

      .cls-2 {
        fill: #114a6c;
      }
    </style>
  </defs>
  <path class="cls-2" d="m179.2-1.02C80.94-1.02,1.28,78.64,1.28,176.9s79.66,177.92,177.92,177.92,177.92-79.66,177.92-177.92S277.46-1.02,179.2-1.02Zm0,339.02c-88.97,0-161.1-72.13-161.1-161.1S90.23,15.8,179.2,15.8s161.1,72.13,161.1,161.1-72.13,161.1-161.1,161.1Z"/>
  <path class="cls-1" d="m171.99,323.41c-2.86-13.62-2.2-27.12,4.27-39.93,8.44-16.69,25.07-28.74,40.48-38.54,18.07-11.48,36.98-21.45,54.28-34.14,5.34-3.92,10.5-8.08,15.36-12.57,34.42-31.83,41.7-59.07,17.57-98.18-37.63-60.97-142.65-107.72-187.78-28.84-7.28,12.72-11.6,26.26-14.48,40.57-2.62,12.99-3.91,26.12-6.1,39.16-1.96,11.69-4.78,23.72-11.12,33.9-10.63,17.09-28.59,24.2-47.54,27.34,3.65,14.77,9.59,28.85,17.59,41.82,25.47,41.28,69.36,67,117.47,69.41h0ZM33.1,188.34c13.37,2.22,26.66-8.07,32.7-19.36,5.11-9.54,7.81-21.42,9.88-31.99,2.58-13.16,4.5-26.42,7.4-39.52,3.32-14.96,7.93-30.05,16.04-43.17-44.85,29.27-70.13,80.6-66.02,134.04h0Zm292.6-5.8c-14.6,25.76-37.64,42.94-63.28,58.77-6.58,4.06-13.23,7.99-19.82,12.02-6.03,3.69-12.04,7.47-17.77,11.6-9.27,6.68-18.75,14.9-23.66,25.45-4.8,10.29-4.38,21.16-1.42,31.78,20.04-2.82,39.23-9.79,56.47-20.42,41.96-25.9,67.65-70.74,69.49-119.2h0Z"/>
</svg>