<svg id="页面-1" xmlns="http://www.w3.org/2000/svg" width="19" height="19" viewBox="0 0 19 19">
  <g id="Business">
    <g id="coupon_line">
      <path id="MingCute" d="M19,0V19H0V0ZM9.97,18.412H9.961l-.056.028-.015,0h0l-.012,0-.056-.028a.017.017,0,0,0-.019,0l0,.009-.014.338,0,.016.009.01.082.059.012,0h0l.009,0,.082-.059.01-.013h0l0-.013-.014-.338a.017.017,0,0,0-.013-.014Zm.21-.089-.011,0-.146.073-.008.008h0l0,.009.014.34,0,.01h0l.007.006.159.073a.02.02,0,0,0,.023-.006l0-.011-.027-.487a.02.02,0,0,0-.015-.017Zm-.566,0a.018.018,0,0,0-.022,0l0,.011-.027.487a.018.018,0,0,0,.013.019h.012l.159-.073.007-.006h0l0-.009.014-.34,0-.01h0L9.76,18.4Z" fill="none"/>
      <path id="形状" d="M15.458,4a2.375,2.375,0,0,1,2.371,2.235l0,.14V7.814a1.226,1.226,0,0,1-.614,1.053l-.085.046a1.584,1.584,0,0,0-.11,2.783l.11.06a1.242,1.242,0,0,1,.693.981l.006.118v1.439A2.375,2.375,0,0,1,15.6,16.663l-.14,0H4.375A2.375,2.375,0,0,1,2,14.431l0-.14V12.853A1.226,1.226,0,0,1,2.614,11.8l.085-.046a1.584,1.584,0,0,0,.11-2.783l-.11-.06a1.242,1.242,0,0,1-.694-.981L2,7.814V6.375A2.375,2.375,0,0,1,4.235,4l.14,0Zm0,1.583H4.375a.792.792,0,0,0-.786.7l-.005.092V7.59a3.167,3.167,0,0,1,.147,5.4l-.147.09v1.215a.792.792,0,0,0,.7.786l.092.005H15.458a.792.792,0,0,0,.786-.7l.005-.092V13.076a3.167,3.167,0,0,1-.147-5.4l.147-.09V6.375a.792.792,0,0,0-.7-.786ZM8.333,7.958a.792.792,0,0,1,.786.7l.005.092v3.167a.792.792,0,0,1-1.578.092l-.005-.092V8.75A.792.792,0,0,1,8.333,7.958Z" transform="translate(-0.417 -0.833)" fill="#007a8b"/>
    </g>
  </g>
</svg>
