<svg id="cake-3-svgrepo-com" xmlns="http://www.w3.org/2000/svg" width="24" height="24" viewBox="0 0 24 24">
  <path id="Path_3" data-name="Path 3" d="M0,0H24V24H0Z" fill="none"/>
  <path id="Path_4" data-name="Path 4" d="M18.2,2a4.2,4.2,0,0,1,4.124,5l-.018.079a5.4,5.4,0,0,1,.364,10.114L21.365,25a1.2,1.2,0,0,1-1.183,1H7.815a1.2,1.2,0,0,1-1.183-1L5.4,17.593A3.6,3.6,0,0,1,4.4,10.6l0-.2A7.2,7.2,0,0,1,14.688,3.9,4.191,4.191,0,0,1,18.2,2ZM12.8,17.6H10.4v6h2.4Zm4.8,0H15.2v6h2.4Zm3-2.4a3,3,0,1,0-1.147-5.772l-.21.1a2.4,2.4,0,0,1-3.2-.965L15.961,8.4A4.8,4.8,0,0,0,6.805,10.12l-.006.236,0,.2A2.4,2.4,0,0,1,5.38,12.8l-.18.071A1.2,1.2,0,0,0,5.6,15.2Z" transform="translate(-1.997 -2)" fill="#ef5253"/>
</svg>
