<svg xmlns="http://www.w3.org/2000/svg" width="24" height="24" viewBox="0 0 24 24">
  <path id="local_cafe_FILL0_wght400_GRAD0_opsz24" d="M161.333-816a1.29,1.29,0,0,1-.95-.383,1.29,1.29,0,0,1-.383-.95,1.29,1.29,0,0,1,.383-.95,1.29,1.29,0,0,1,.95-.383H180a1.29,1.29,0,0,1,.95.383,1.29,1.29,0,0,1,.383.95,1.29,1.29,0,0,1-.383.95A1.29,1.29,0,0,1,180-816Zm4-5.333a5.136,5.136,0,0,1-3.767-1.567A5.136,5.136,0,0,1,160-826.667v-10.667a2.568,2.568,0,0,1,.783-1.883,2.568,2.568,0,0,1,1.883-.783h18.667a2.568,2.568,0,0,1,1.883.783,2.568,2.568,0,0,1,.783,1.883v4a2.567,2.567,0,0,1-.783,1.883,2.568,2.568,0,0,1-1.883.783h-2.667v4A5.136,5.136,0,0,1,177.1-822.9a5.136,5.136,0,0,1-3.767,1.567Zm0-2.667h8a2.568,2.568,0,0,0,1.883-.783,2.568,2.568,0,0,0,.783-1.883v-10.667H162.667v10.667a2.568,2.568,0,0,0,.783,1.883A2.568,2.568,0,0,0,165.333-824Zm13.333-9.333h2.667v-4h-2.667ZM165.333-824h0Z" transform="translate(-160 840)" fill="#ef5253"/>
</svg>
