<svg xmlns="http://www.w3.org/2000/svg" width="24" height="21.6" viewBox="0 0 24 21.6">
  <path id="lunch_dining_FILL0_wght400_GRAD0_opsz24" d="M82.4-818.4a2.311,2.311,0,0,1-1.695-.705A2.311,2.311,0,0,1,80-820.8v-2.4a1.161,1.161,0,0,1,.345-.855,1.161,1.161,0,0,1,.855-.345h21.6a1.161,1.161,0,0,1,.855.345,1.161,1.161,0,0,1,.345.855v2.4a2.311,2.311,0,0,1-.7,1.695,2.311,2.311,0,0,1-1.695.705Zm0-3.6v1.2h19.2V-822Zm9.6-5.4a2.377,2.377,0,0,0-1.71.6,3.373,3.373,0,0,1-2.31.6,3.248,3.248,0,0,1-2.28-.6,2.271,2.271,0,0,0-1.68-.6,2.173,2.173,0,0,0-1.365.4,4.015,4.015,0,0,1-1.425.645.823.823,0,0,1-.855-.195A1.115,1.115,0,0,1,80-827.4a1.264,1.264,0,0,1,.345-.885,2.826,2.826,0,0,1,.825-.615l1.11-.585a3.831,3.831,0,0,1,1.74-.315,3.248,3.248,0,0,1,2.28.6,2.271,2.271,0,0,0,1.68.6,2.377,2.377,0,0,0,1.71-.6,3.373,3.373,0,0,1,2.31-.6,3.373,3.373,0,0,1,2.31.6,2.377,2.377,0,0,0,1.71.6,2.271,2.271,0,0,0,1.68-.6,3.248,3.248,0,0,1,2.28-.6,4.033,4.033,0,0,1,1.71.3q.63.3,1.14.57a2.7,2.7,0,0,1,.825.63,1.318,1.318,0,0,1,.345.9,1.137,1.137,0,0,1-.36.855.794.794,0,0,1-.84.195,3.69,3.69,0,0,1-1.365-.645,2.046,2.046,0,0,0-1.335-.4,2.487,2.487,0,0,0-1.74.6,3.5,3.5,0,0,1-2.34.6,3.373,3.373,0,0,1-2.31-.6A2.377,2.377,0,0,0,92-827.4ZM92-840a23.463,23.463,0,0,1,4.365.405,14.432,14.432,0,0,1,3.84,1.26,7.865,7.865,0,0,1,2.745,2.22A5.275,5.275,0,0,1,104-832.8a1.161,1.161,0,0,1-.345.855,1.161,1.161,0,0,1-.855.345H81.2a1.161,1.161,0,0,1-.855-.345A1.161,1.161,0,0,1,80-832.8a5.275,5.275,0,0,1,1.05-3.315,7.865,7.865,0,0,1,2.745-2.22,14.432,14.432,0,0,1,3.84-1.26A23.463,23.463,0,0,1,92-840Zm0,2.4a18.029,18.029,0,0,0-6.225.93A5.03,5.03,0,0,0,82.58-834h18.84a5.03,5.03,0,0,0-3.2-2.67A18.029,18.029,0,0,0,92-837.6ZM92-822ZM92-834Z" transform="translate(-80 840)" fill="#ef5253"/>
</svg>
