<svg xmlns="http://www.w3.org/2000/svg" width="21.054" height="24" viewBox="0 0 21.054 24">
  <path id="fries-svgrepo-com" d="M160.371,68.622V66.776a.923.923,0,1,0-1.846,0v9.692h.775a1.846,1.846,0,0,0,1.071-.343Zm2.917,4.615a1.846,1.846,0,0,0-1.071.343v-.343h1.846V68.622a.923.923,0,0,0-1.846,0v4.615Zm2.16,0a2.681,2.681,0,0,1,2.634,3.175l-1.75,9.334a2.769,2.769,0,0,1-2.721,2.26H151.592a2.769,2.769,0,0,1-2.721-2.26l-1.75-9.334a2.681,2.681,0,0,1,2.634-3.175h-.462V68.622a2.769,2.769,0,0,1,5.441-.729,2.762,2.762,0,0,1,1.944-.037v-1.08a2.769,2.769,0,0,1,5.441-.729,2.769,2.769,0,0,1,3.79,2.575v4.615Zm-3.266,3.692a3.692,3.692,0,0,1-2.882,1.385h-3.4a3.692,3.692,0,0,1-2.88-1.385h-.037v-.044a3.7,3.7,0,0,1-.288-.432l-.783-1.37h-2.16a.834.834,0,0,0-.822.99l.853,4.549h15.63l.853-4.549a.834.834,0,0,0-.822-.99h-2.16l-.783,1.37a3.818,3.818,0,0,1-.288.432v.044Zm-5.5-6.462a.923.923,0,0,0-1.846,0v5.657a1.846,1.846,0,0,0,1.071.343h.775Zm-3.692,2.769V68.622a.923.923,0,1,0-1.846,0v4.615h.775a1.846,1.846,0,0,1,1.071.343Zm-2.852,9.231.55,2.939a.923.923,0,0,0,.908.753h12.019a.923.923,0,0,0,.908-.753l.55-2.939Z" transform="translate(-147.075 -64.007)" fill="#ef5253"/>
</svg>
